<svg width="80" height="81" viewBox="0 0 80 81" fill="none" xmlns="http://www.w3.org/2000/svg">
<g clip-path="url(#clip0_3_4404)">
<path d="M52.4999 50.9014L50.4999 55.4014L51.9999 58.4014V59.9014L52.4999 61.9014C53.1666 62.2347 54.5999 62.9014 54.9999 62.9014C55.3999 62.9014 56.4999 63.2347 56.9999 63.4014C56.9999 63.9014 56.8999 65.0014 56.4999 65.4014C56.0999 65.8014 55.3333 65.9014 54.9999 65.9014C54.6666 66.568 53.9999 68.0014 53.9999 68.4014C53.9999 68.9014 53.4999 70.4014 53.4999 70.9014C53.4999 71.3014 52.4999 73.068 51.9999 73.9014L52.4999 78.4014C53.9999 78.568 57.0999 78.9014 57.4999 78.9014H65.4999C68.1666 78.068 73.4999 76.3014 73.4999 75.9014C73.4999 75.5014 75.4999 74.7347 76.4999 74.4014L78.4999 70.4014L76.4999 65.9014L70.9999 54.9014L69.9999 54.4014C69.3333 54.568 67.8999 54.8014 67.4999 54.4014C66.9999 53.9014 65.4999 53.9014 65.4999 53.4014C65.4999 52.9014 64.4999 52.9014 64.4999 52.4014C64.4999 51.9014 63.9999 51.4014 63.9999 50.9014V48.9014C63.9999 48.4014 64.4999 47.9014 64.4999 47.4014C64.4999 47.0014 65.4999 46.568 65.9999 46.4014V44.9014C65.6666 44.2347 64.9999 42.8014 64.9999 42.4014C64.9999 41.9014 63.4999 40.9014 62.9999 40.9014C62.4999 40.9014 60.9999 40.4014 60.4999 40.4014C60.0999 40.4014 58.6666 41.068 57.9999 41.4014L55.9999 44.9014L52.4999 50.9014Z" fill="#009ADB"/>
<path d="M32.4999 30.4014L23.9999 29.9014L23.4999 31.9014V36.4014L23.9999 43.4014C24.4999 43.568 25.6999 44.0014 26.4999 44.4014C27.4999 44.9014 30.4999 44.4014 30.9999 44.4014C31.4999 44.4014 37.9999 43.9014 38.4999 43.4014C38.9999 42.9014 39.4999 41.9014 39.9999 41.4014C40.4999 40.9014 40.4999 39.4014 40.4999 38.9014V34.9014C40.4999 33.9014 39.9999 32.4014 39.9999 31.9014C39.9999 31.5014 38.9999 30.7347 38.4999 30.4014H32.4999Z" fill="#009ADB"/>
<path d="M79.487 68.5265L71.687 53.0076C71.5223 52.6799 71.2137 52.4482 70.8532 52.3815C70.4926 52.3148 70.1215 52.4207 69.8505 52.6678C69.2997 53.1698 68.5829 53.4464 67.8322 53.4464C66.1736 53.4464 64.8244 52.0963 64.8244 50.437C64.8244 49.0032 65.8441 47.7619 67.2492 47.4852C67.6086 47.4144 67.9143 47.1797 68.0753 46.8508C68.2364 46.5219 68.2344 46.1366 68.07 45.8092L66.1058 41.8994C65.1633 40.0253 63.2745 38.861 61.1768 38.8609C61.1767 38.8609 61.1765 38.8609 61.1764 38.8609C60.9735 38.8609 60.7737 38.8749 60.5754 38.8964C60.524 36.0015 60.4495 33.1028 60.3506 30.2589C60.2514 27.3856 59.4065 24.5792 57.9071 22.1429C57.5679 21.5916 56.846 21.4197 56.2949 21.7591C55.7438 22.0983 55.5719 22.8202 55.9111 23.3713C57.1979 25.4621 57.923 27.8718 58.0082 30.3402C58.1155 33.4203 58.1943 36.5651 58.2454 39.6993C57.4087 40.2236 56.7129 40.9739 56.2479 41.8981L50.5145 53.3059C48.295 49.8565 45.1873 47.1807 41.5618 47.1807C35.2379 47.1807 30.489 55.3198 29.283 61.5085H29.2072C28.5888 58.335 27.0386 54.6495 24.8222 51.8106C24.8062 49.5776 24.8059 47.3344 24.8195 45.0866C26.0303 45.1106 27.2439 45.1264 28.4608 45.1264C31.5015 45.1264 34.5545 45.0516 37.5833 44.9025C39.6366 44.8014 41.303 43.2464 41.5458 41.205C41.8736 38.4484 41.8736 35.6529 41.5458 32.8963C41.303 30.8548 39.6367 29.2998 37.5839 29.1989C33.4856 28.9973 29.3352 28.9331 25.2267 29.0047C25.8377 24.1935 28.8188 20.0561 33.2528 17.9624H49.8726C51.0381 18.5127 52.1258 19.2196 53.1069 20.0703C53.3286 20.2627 53.6019 20.3569 53.8741 20.3569C54.2021 20.3569 54.5283 20.22 54.76 19.9528C55.1839 19.4639 55.1313 18.7238 54.6424 18.2997C54.1144 17.8419 53.5585 17.4214 52.9806 17.0358C53.9941 16.24 54.6471 15.0048 54.6471 13.6193C54.6471 11.6306 53.303 9.95101 51.4759 9.43819V5.29408C51.4755 2.59624 49.2808 0.401367 46.5828 0.401367H36.5419C33.844 0.401367 31.6491 2.59624 31.6491 5.29408V9.43851C29.8219 9.95132 28.4779 11.6309 28.4779 13.6196C28.4779 15.005 29.1305 16.2398 30.1437 17.0356C28.3744 18.2156 26.8396 19.7299 25.6306 21.5063C23.8705 24.0927 22.8828 27.1195 22.7745 30.2589C22.5547 36.6034 22.4514 43.0167 22.4658 49.3643C20.8254 48.0207 18.9582 47.1808 16.9283 47.1808C14.0789 47.1808 11.1956 48.9254 8.80949 52.0931C8.41996 52.6099 8.5234 53.3448 9.04044 53.7342C9.55747 54.1237 10.2922 54.0203 10.6815 53.5032C11.8009 52.0173 14.101 49.5246 16.9285 49.5246C19.1309 49.5246 21.4445 51.067 23.4434 53.8673C25.0262 56.0848 26.2403 58.8591 26.8156 61.5086H7.0401C7.33948 60.1336 7.81558 58.7088 8.44308 57.3217C8.70981 56.732 8.44808 56.0378 7.85839 55.7709C7.26885 55.5042 6.57447 55.7659 6.30759 56.3556C5.53805 58.0567 4.97523 59.818 4.65117 61.5085H3.04208C1.36566 61.5085 0.00189209 62.8723 0.00189209 64.5487C0.00189209 66.225 1.36581 67.5889 3.04208 67.5889H3.61803C3.81256 69.3842 4.14053 71.1734 4.46132 72.9132C4.68992 74.1529 4.92632 75.4349 5.10601 76.6843C5.34945 78.3713 6.69822 79.684 8.38668 79.8767C11.4592 80.2259 14.1924 80.4006 16.9266 80.4006C19.6568 80.4006 22.3881 80.2265 25.4583 79.8782C26.0186 79.8145 26.54 79.6264 26.998 79.3449C28.1939 80.0379 29.5415 80.4011 30.9444 80.4011H41.5633L41.5603 80.4003C44.2954 80.4004 47.0299 80.2259 50.104 79.8765C50.9181 79.7837 51.6517 79.4285 52.2222 78.8984C55.1216 79.8993 58.1376 80.3914 61.1401 80.3914C67.2471 80.3914 73.296 78.3628 78.1833 74.4763C79.9605 73.0643 80.5089 70.562 79.487 68.5265ZM33.9929 5.29408C33.9929 3.8886 35.1364 2.74514 36.5419 2.74514H46.5828C47.9882 2.74514 49.1317 3.8886 49.1317 5.29408V9.27647H33.9929V5.29408ZM32.821 11.6202H50.3036C51.4061 11.6202 52.3028 12.5171 52.3028 13.6195C52.3028 14.722 51.4059 15.6189 50.3036 15.6189H32.821C31.7185 15.6189 30.8216 14.722 30.8216 13.6195C30.8216 12.5171 31.7187 11.6202 32.821 11.6202ZM37.4684 31.5402C38.375 31.5847 39.1109 32.2716 39.2181 33.1733C39.5241 35.7463 39.5241 38.3556 39.2181 40.9284C39.1109 41.8301 38.3748 42.5172 37.4678 42.5617C33.2717 42.7683 29.0296 42.8286 24.8387 42.745C24.8789 38.9442 24.9609 35.1376 25.0847 31.3519C29.201 31.2763 33.3609 31.3383 37.4684 31.5402ZM58.3413 42.9512C58.8916 41.8576 59.9512 41.2048 61.176 41.2048H61.1764C62.4014 41.205 63.4614 41.8583 64.0116 42.9522L65.3816 45.6791C63.6397 46.5793 62.4806 48.399 62.4806 50.4371C62.4806 53.3889 64.8812 55.7903 67.8322 55.7903C68.6586 55.7903 69.4627 55.6015 70.1885 55.2451L76.7451 68.29C76.7381 68.2956 76.7317 68.3018 76.7247 68.3075C73.4284 70.9292 69.4868 72.6828 65.3261 73.3788C61.5754 74.0061 57.7059 73.7668 54.07 72.6942C54.3778 71.0231 54.6861 69.3091 54.8722 67.5889H55.4488C57.1252 67.5889 58.489 66.2251 58.489 64.5487C58.489 62.8723 57.1252 61.5085 55.4488 61.5085H53.84C53.4839 59.6811 52.8191 57.6841 51.8956 55.7762L58.3413 42.9512ZM35.0462 53.8676C37.0453 51.067 39.3592 49.5246 41.5614 49.5246C43.7643 49.5246 46.0782 51.067 48.0771 53.8676C49.6598 56.085 50.8737 58.8592 51.4489 61.5088H31.674C32.2491 58.8596 33.4632 56.0853 35.0462 53.8676ZM2.34567 64.549C2.34567 64.1649 2.65817 63.8526 3.04208 63.8526H55.4488C55.8329 63.8526 56.1452 64.1649 56.1452 64.549C56.1452 64.9329 55.8329 65.2454 55.4488 65.2454H3.04208C2.65802 65.2453 2.34567 64.9329 2.34567 64.549ZM28.5327 77.5076C28.6344 77.246 28.71 76.9712 28.7513 76.6841C28.8608 75.9158 28.9908 75.0004 29.1268 74.0235C29.1361 73.9572 29.1411 73.9207 29.245 73.9207C29.3491 73.9207 29.3541 73.9572 29.3633 74.0225C29.4994 75.0005 29.6294 75.916 29.7391 76.6855C29.8077 77.162 29.9674 77.607 30.196 78.007C29.616 77.9293 29.0568 77.7613 28.5327 77.5076ZM49.8387 77.5482C43.8879 78.2245 39.2499 78.2249 33.2971 77.5498C32.6591 77.4771 32.1499 76.9846 32.0591 76.3534C31.9499 75.5872 31.8204 74.6746 31.6845 73.6983C31.5095 72.4492 30.5062 71.5769 29.2449 71.577C27.9836 71.577 26.9805 72.4494 26.8055 73.6994C26.6697 74.6746 26.5402 75.5874 26.4311 76.3521C26.3402 76.9846 25.8309 77.4771 25.1934 77.5498C19.2396 78.2249 14.6016 78.2245 8.65184 77.5482C8.02136 77.4763 7.51714 76.9835 7.42573 76.3502C7.23948 75.0555 6.99885 73.7504 6.76603 72.4883C6.46869 70.8761 6.1654 69.2206 5.97634 67.589H52.5138C52.3244 69.225 52.0203 70.885 51.7223 72.5016C51.4905 73.7597 51.2506 75.0605 51.0644 76.3512C50.9731 76.9841 50.4689 77.4763 49.8387 77.5482ZM76.7247 72.6419C70.1627 77.8599 61.3101 79.4112 53.3614 76.8074C53.3686 76.7668 53.3783 76.7271 53.3842 76.6862C53.4641 76.1332 53.5558 75.5738 53.6521 75.0146C56.1005 75.7118 58.642 76.0654 61.1879 76.0654C62.7011 76.0654 64.2158 75.9408 65.7128 75.6905C70.0426 74.9663 74.154 73.1932 77.6509 70.5517C77.6959 71.3406 77.3681 72.1306 76.7247 72.6419Z" fill="#095FAF"/>
<path d="M62.2684 68.1192C63.0581 69.2678 64.2477 70.04 65.6182 70.2937C65.9388 70.3531 66.2602 70.3825 66.5793 70.3825C67.6246 70.3825 68.6448 70.0678 69.5248 69.4628C70.6734 68.6731 71.4455 67.4834 71.6993 66.113C71.9532 64.7425 71.6579 63.3551 70.8684 62.2066C70.0787 61.058 68.889 60.2858 67.5185 60.032C66.1476 59.7783 64.7607 60.0734 63.6121 60.863C62.4635 61.6526 61.6913 62.8423 61.4376 64.2128C61.1835 65.5834 61.4787 66.9708 62.2684 68.1192ZM63.742 64.6395C63.8818 63.8845 64.3073 63.2292 64.9399 62.7942C65.4246 62.4609 65.9865 62.2876 66.5623 62.2876C66.738 62.2876 66.9152 62.3039 67.0916 62.3366C67.8466 62.4764 68.5019 62.9017 68.9371 63.5345C69.3721 64.1672 69.5346 64.9314 69.3949 65.6864C69.2551 66.4414 68.8296 67.0967 68.1969 67.5317C67.5641 67.9667 66.7998 68.1292 66.0452 67.9895C65.2902 67.8497 64.6349 67.4244 64.1998 66.7916C63.7648 66.1587 63.6021 65.3945 63.742 64.6395Z" fill="#095FAF"/>
<path d="M57.3467 61.0899C57.5805 61.1332 57.8149 61.1546 58.0475 61.1546C58.8095 61.1546 59.5533 60.9251 60.1949 60.4841C61.0322 59.9084 61.5952 59.041 61.7802 58.0419C61.9653 57.0427 61.75 56.0313 61.1744 55.1938C60.5988 54.3563 59.7313 53.7934 58.7322 53.6084C56.6695 53.2266 54.6806 54.5938 54.2988 56.6565C53.9166 58.7191 55.2841 60.708 57.3467 61.0899ZM56.6031 57.0832C56.7497 56.2913 57.5134 55.766 58.3053 55.913C58.6889 55.9841 59.0219 56.2002 59.243 56.5218C59.4641 56.8434 59.5466 57.2316 59.4756 57.6152C59.4045 57.9988 59.1884 58.3319 58.8669 58.5529C58.5455 58.774 58.1575 58.8566 57.7735 58.7855C56.9816 58.6387 56.4566 57.8751 56.6031 57.0832Z" fill="#095FAF"/>
</g>
<defs>
<clipPath id="clip0_3_4404">
<rect width="80" height="80" fill="white" transform="translate(0 0.401367)"/>
</clipPath>
</defs>
</svg>
