<svg width="80" height="80" viewBox="0 0 80 80" fill="none" xmlns="http://www.w3.org/2000/svg">
<g clip-path="url(#clip0_782_2608)">
<path d="M70 78C74.9706 78 79 73.9706 79 69C79 64.0294 74.9706 60 70 60C65.0294 60 61 64.0294 61 69C61 73.9706 65.0294 78 70 78Z" fill="#009ADB"/>
<path d="M2 35L3 50.5L12 59.5L13 55L14 38.5V23.5L12 21.5L10 20.5H5L2 22.5V26V35Z" fill="#009ADB"/>
<path d="M49.7571 31.3671L50.4749 30.0005L48.1181 28.7625L47.4003 30.1298C46.0941 32.6213 43.9291 34.5548 41.307 35.573V23.7452C44.39 22.7927 46.979 20.6732 48.5212 17.8385L49.1369 16.6988L46.793 15.4336L46.178 16.572C45.1065 18.5413 43.3849 20.0777 41.307 20.9183V12.0716H38.6439V20.9183C36.566 20.0777 34.8443 18.5413 33.7735 16.572L33.1585 15.4336L30.8146 16.6988L31.4297 17.8385C32.9719 20.6732 35.5608 22.7927 38.6439 23.7452V35.573C36.0218 34.5548 33.8574 32.6213 32.5512 30.1298L31.8334 28.7625L29.4766 30.0005L30.1944 31.3671C31.9622 34.7408 35.0043 37.2699 38.6439 38.3921V50.2199C36.0218 49.2017 33.8574 47.2681 32.5512 44.7767L31.8334 43.4094L29.4766 44.6473L30.1944 46.014C31.9622 49.3877 35.0043 51.9168 38.6439 53.039V71.9906H41.307V53.039C44.9472 51.9168 47.9887 49.3877 49.7571 46.014L50.4749 44.6473L48.1181 43.4094L47.4003 44.7767C46.0941 47.2681 43.9291 49.2017 41.307 50.2199V38.3921C44.9472 37.2699 47.9887 34.7408 49.7571 31.3671Z" fill="#095FAF"/>
<path d="M72.9937 59.3612C74.3115 58.2221 75.3011 56.7508 75.8589 55.1L73.3291 54.2587C72.8363 55.73 71.8773 57.0004 70.5965 57.8762V52.0176H67.9335V57.8762C66.6546 57.0017 65.6962 55.7339 65.2028 54.2652L62.673 55.1072C63.2308 56.7573 64.2204 58.2286 65.5383 59.3677C60.7101 61.1693 57.8644 66.169 58.7798 71.2403C59.6952 76.3109 64.1092 79.9999 69.2624 79.9999C74.4156 79.9999 78.8302 76.3109 79.7456 71.2403C80.661 66.169 77.8146 61.1693 72.9865 59.3677L72.9937 59.3612ZM69.265 77.3167C64.853 77.3167 61.2758 73.7402 61.2758 69.3275C61.2758 64.9155 64.853 61.3383 69.265 61.3383C73.6776 61.3383 77.2542 64.9155 77.2542 69.3275C77.2503 73.7382 73.6757 77.3122 69.265 77.3167Z" fill="#095FAF"/>
<path d="M75.9135 1.58444C75.961 1.2054 75.8433 0.824403 75.5904 0.538331C75.3381 0.25226 74.9747 0.0877686 74.5924 0.0877686H70.5978C69.9574 0.0877686 69.4074 0.544183 69.289 1.17419L69.2663 1.29577L69.2442 1.17419C69.1258 0.544183 68.5758 0.0877686 67.9347 0.0877686H63.9401C63.5585 0.0877686 63.1951 0.25226 62.9421 0.538331C62.6899 0.824403 62.5722 1.2054 62.6197 1.58444L65.2717 22.8064V33.6427C65.1793 36.4137 64.7775 39.1658 64.0734 41.8477C63.9154 42.5401 63.8985 43.2586 64.024 43.9581C64.4265 46.1446 66.1364 47.8572 68.3222 48.2629C68.6304 48.3162 68.9418 48.3435 69.2546 48.3441C70.6687 48.3461 72.0249 47.7856 73.0255 46.787C74.0261 45.7877 74.5885 44.4321 74.5885 43.018C74.5885 42.7592 74.5696 42.5011 74.5326 42.2456L74.2452 40.3497C73.6711 37.1672 73.3421 33.9456 73.2609 30.713V22.8064L75.9135 1.58444ZM65.4492 2.75083H66.8295L70.5978 22.848V27.0312L67.8912 22.2954L65.4492 2.75083ZM70.9788 45.055C70.3689 45.5686 69.5608 45.7818 68.7767 45.6356C67.6968 45.423 66.8535 44.5764 66.6461 43.4959C66.5811 43.1428 66.5889 42.7807 66.6689 42.4309C67.4198 39.5585 67.8444 36.61 67.9347 33.6427V27.7372L70.6609 32.5068C70.8358 35.27 71.155 38.0215 71.6166 40.7515L71.9014 42.6331C71.9202 42.7592 71.93 42.8873 71.9293 43.0154C71.9293 43.8021 71.5815 44.5491 70.9788 45.055ZM71.6634 14.0942L70.5783 8.30712L70.655 8.32208L71.7031 2.75083H73.084L71.6634 14.0942Z" fill="#095FAF"/>
<path d="M61.2753 22.7238C61.2902 19.1525 59.2481 15.8913 56.0278 14.3458C55.3998 14.0637 55.1013 13.3407 55.3477 12.6977C56.8269 8.76679 55.4947 4.33203 52.0937 1.86726C48.6927 -0.597503 44.0635 -0.483075 40.7887 2.14618C40.3127 2.53563 39.6288 2.53563 39.1535 2.14618C37.1939 0.564337 34.6758 -0.154092 32.1759 0.156035C29.338 0.505172 26.818 2.13773 25.3382 4.58494C23.8591 7.0315 23.5847 10.0223 24.5944 12.6977C24.8408 13.3407 24.5417 14.0637 23.9137 14.3458C21.3501 15.5902 19.4971 17.9393 18.8847 20.7226C18.2716 23.5053 18.9672 26.4154 20.7714 28.6215C21.1258 29.0662 21.1258 29.6968 20.7714 30.1422C17.9634 33.5731 17.9634 38.5085 20.7714 41.9394C21.1225 42.4055 21.1069 43.0512 20.7344 43.4998C18.5004 46.2649 18.0343 50.0599 19.5316 53.2834C21.0289 56.5069 24.2297 58.5985 27.7834 58.6752L29.5343 70.9256C30.2781 76.1178 34.7259 79.9739 39.9707 79.9739C45.2163 79.9739 49.664 76.1178 50.4078 70.9256L52.1587 58.6752C55.7131 58.5985 58.9145 56.5063 60.4119 53.2815C61.9085 50.056 61.4404 46.2604 59.2052 43.4959C58.8326 43.0473 58.817 42.401 59.1675 41.9355C61.9762 38.5046 61.9762 33.5692 59.1675 30.1376C58.8138 29.6929 58.8138 29.0623 59.1675 28.6175C60.5276 26.9538 61.272 24.8726 61.2753 22.7238ZM57.1103 31.8287C58.0804 33.0178 58.6109 34.5048 58.6122 36.0392C58.6181 37.5755 58.0862 39.0657 57.109 40.2509C55.9537 41.693 55.9641 43.7475 57.1344 45.1778C58.7422 47.1732 59.0621 49.9143 57.9568 52.2263C56.8516 54.5382 54.5175 56.0102 51.9545 56.0121C51.6971 56.0043 51.4396 55.9796 51.1854 55.9393C50.8376 55.8912 50.4858 55.9842 50.2063 56.1961C49.9273 56.4087 49.7446 56.7234 49.6978 57.0706L47.7727 70.5511C47.2155 74.4319 43.8912 77.3134 39.9707 77.3134C36.0509 77.3134 32.726 74.4319 32.1694 70.5511L30.2508 57.0778C30.1175 56.41 29.5252 55.9335 28.8445 55.9458C28.7847 55.9458 28.7255 55.9497 28.6664 55.9575C26.5494 56.1929 24.4494 55.3886 23.0314 53.799C20.8508 51.3706 20.7584 47.7174 22.8143 45.1817C23.9845 43.7514 23.9949 41.6975 22.8396 40.2548C21.8585 39.0696 21.3247 37.5781 21.3293 36.0392C21.3312 34.5048 21.8611 33.0178 22.8312 31.8287C23.9923 30.4042 23.9923 28.3594 22.8312 26.9343C21.5432 25.3589 21.0471 23.281 21.4853 21.2935C21.9229 19.3066 23.2466 17.6292 25.0775 16.7417C26.9447 15.8555 27.8186 13.684 27.0845 11.7523C26.6788 10.6854 26.5572 9.53138 26.7302 8.40335C27.1944 5.46461 29.5395 3.18254 32.4906 2.80025C34.2773 2.57399 36.0795 3.08502 37.4826 4.21565C38.9389 5.37554 41.0032 5.37554 42.4596 4.21565C43.8613 3.08307 45.6636 2.57009 47.4515 2.79504C50.402 3.17929 52.7471 5.45941 53.2133 8.39814C53.3849 9.52618 53.2627 10.6796 52.8576 11.7465C52.1236 13.6788 52.9968 15.8503 54.864 16.7358C56.6949 17.624 58.0186 19.3014 58.4568 21.2883C58.8944 23.2752 58.3983 25.3537 57.1103 26.9291C55.9465 28.3549 55.9465 30.4029 57.1103 31.8287Z" fill="#095FAF"/>
<path d="M0.281483 25.6892L2.51089 74.7173C2.64028 77.6645 5.06733 79.9869 8.01647 79.9869C10.9663 79.9869 13.3927 77.6645 13.5227 74.7173L15.7515 25.6892C15.8406 23.8714 15.1761 22.0977 13.9141 20.7864C13.7594 20.6238 13.5786 20.5003 13.4109 20.3553L14.6742 0.170343L12.0111 0.0052013L10.8278 18.9821C10.3447 18.8508 9.84863 18.7747 9.348 18.7546V0.087772H6.68494V18.7546C6.21162 18.7721 5.74155 18.8404 5.28319 18.9581L4.02187 0L1.3588 0.175544L2.69034 20.1485L2.87563 20.1368C2.60712 20.3345 2.35355 20.5516 2.11689 20.7864C0.855577 22.0984 0.191761 23.872 0.281483 25.6892ZM4.04463 22.627C4.79622 21.8351 5.84103 21.3884 6.93265 21.3923H9.10029C10.1919 21.391 11.2368 21.837 11.9909 22.6257C12.7458 23.4143 13.145 24.478 13.0949 25.5683L12.4948 38.7022H8.01647V41.3653H12.3732L11.4038 62.6698H8.01647V65.3329H11.2829L10.8623 74.5977C10.7959 76.1217 9.54175 77.3225 8.01647 77.3225C6.49184 77.3225 5.23703 76.1217 5.17136 74.5977L4.14475 52.0176H8.01647V49.3545H4.02187L3.17666 30.713H8.01647V28.05H3.05508L2.94195 25.5683C2.88799 24.4773 3.28719 23.413 4.04463 22.627Z" fill="#095FAF"/>
<path d="M63.9453 69.3275C63.9446 70.6382 64.4277 71.9028 65.3021 72.8787L67.2864 71.1024C66.6941 70.4406 66.4711 69.5271 66.6915 68.6669C66.9113 67.8061 67.5459 67.1124 68.3833 66.8165L67.4964 64.305C65.3704 65.0598 63.9485 67.0708 63.9453 69.3275Z" fill="#095FAF"/>
</g>
<defs>
<clipPath id="clip0_782_2608">
<rect width="80" height="80" fill="white"/>
</clipPath>
</defs>
</svg>
