<svg width="80" height="81" viewBox="0 0 80 81" fill="none" xmlns="http://www.w3.org/2000/svg">
<g clip-path="url(#clip0_3_4370)">
<path d="M22.5 57.4009C20.1 57.0009 18.8333 57.9009 18.5 58.4009L18 58.9009C17.5 59.5676 16.5 61.0009 16.5 61.4009V64.4009C16.5 64.9009 16.5 66.4009 17 67.4009C17.5 68.4009 17.5 68.9009 18 69.4009C18.5 69.9009 19 70.4009 19.5 70.4009C20 70.4009 22.5 70.9009 23 70.9009H28.5C30 70.9009 30.5 70.4009 31.5 70.4009C32.5 70.4009 33.5 69.9009 33.5 69.4009C33.5 68.9009 34 68.4009 34.5 67.9009C35 67.4009 34.5 66.4009 35 65.5763C35.5 64.7517 35 64.4009 35 63.9009V61.4009C35 60.9009 34.5 60.4009 34.5 59.9009C34.5 59.4009 33.5 58.9009 33 58.4009C32.6 58.001 31.5 57.5676 31 57.4009C29.1667 57.5676 24.9 57.8009 22.5 57.4009Z" fill="#009ADB"/>
<path d="M67 31.4014C59.8 34.2014 46 32.568 40 31.4014L38.5 32.4014L36 36.4014L34.5 39.9014C36.1 40.3014 40.8333 44.4014 43 46.4014L44.5 49.4014C48.1 49.8014 49 52.9014 49 54.4014L49.5 64.9014C56.3 66.9014 72 63.7347 79 61.9014C79.4 61.1014 77.8333 52.568 77 48.4014C75 42.4014 69.5 34.568 67 31.4014Z" fill="#009ADB"/>
<path d="M74.0949 39.319C71.7068 34.9543 69.3328 32.1337 68.4777 31.1788V24.7367L79.5718 15.6271C79.8359 15.4101 79.9923 15.0886 79.9997 14.7467C80.0072 14.4049 79.8648 14.0769 79.6103 13.8487L71.2162 6.32501C70.7343 5.89312 69.9933 5.93374 69.5613 6.41548C69.1292 6.89737 69.1699 7.63834 69.6518 8.07039L77.0288 14.6825L68.4781 21.7036V16.9109C68.4781 16.2637 67.9536 15.739 67.3062 15.739C66.6588 15.739 66.1343 16.2637 66.1343 16.9109L66.1337 30.6453C57.766 31.9996 49.2972 31.9995 40.9296 30.645V16.9109C40.9296 16.2637 40.405 15.739 39.7576 15.739C39.1103 15.739 38.5857 16.2637 38.5857 16.9109V21.704L30.0344 14.6825L39.1571 6.50455C40.4992 5.30106 42.2324 4.80089 43.9003 4.99902C44.2437 6.47439 45.0325 9.56904 46.2438 12.652C48.2342 17.718 50.5559 20.7465 53.1441 21.6533C53.2696 21.6972 53.4005 21.7192 53.5315 21.7192C53.6624 21.7192 53.7935 21.6972 53.9188 21.6533C56.507 20.7465 58.8288 17.718 60.8197 12.6521C62.029 9.57498 62.8168 6.48845 63.1617 5.00949C64.1942 4.88605 65.2605 5.02418 66.2518 5.44857C66.8473 5.70342 67.5358 5.42732 67.7905 4.83245C68.0453 4.23743 67.7694 3.54865 67.1745 3.29395C64.1639 2.005 60.6541 2.59705 58.232 4.80167L57.1505 5.78608C55.0871 7.66491 51.9766 7.66491 49.914 5.78608L48.8327 4.80167C45.6394 1.89468 40.807 1.87671 37.5924 4.75963L27.4528 13.8491C27.1981 14.0772 27.0559 14.4053 27.0634 14.7471C27.0707 15.0889 27.2271 15.4104 27.4912 15.6274L38.5854 24.737V31.1782C37.8171 32.0332 35.8426 34.3681 33.7382 37.9486C31.9559 36.9989 30.071 36.0612 28.1617 35.1119C26.4932 34.2822 24.8127 33.4465 23.1995 32.5979C24.7761 30.6236 25.9923 28.3888 26.5252 25.7689C27.3396 21.7651 26.1483 18.1888 23.2568 15.9566C20.5156 13.8406 16.7406 13.3689 13.8629 14.7828C12.3203 15.5407 9.73255 17.5076 9.73255 22.1647C9.73255 25.1126 11.6047 27.8994 15.4562 30.6846C16.6609 31.5557 18.0154 32.3995 19.457 33.2228C17.6697 34.9808 15.6186 36.5456 13.6808 38.0234C9.50895 41.2054 5.55082 44.2268 5.44847 48.2976C2.89619 48.9095 0.926892 51.0378 0.584066 53.7186C-0.19534 59.8219 -0.19534 66.0112 0.584066 72.1149C0.977831 75.1924 3.51621 77.5444 6.62008 77.707C12.8435 78.0316 19.1106 78.1938 25.3779 78.1938C31.645 78.1938 37.9126 78.0314 44.1361 77.707C47.2407 77.5442 49.7783 75.1921 50.1702 72.1149C50.4037 70.2902 50.5657 68.4576 50.6596 66.6221C51.6131 66.6507 52.5745 66.666 53.5315 66.666C68.8305 66.666 78.8121 63.0863 79.2296 62.9339C79.692 62.765 79.9997 62.3253 79.9997 61.8331C80 52.1449 76.7889 44.2424 74.0949 39.319ZM48.3361 7.51834C51.2975 10.2167 55.7656 10.2167 58.7288 7.51865L59.8101 6.53439C60.0298 6.33438 60.2622 6.15297 60.5045 5.99015C60.0975 7.54271 59.4731 9.6717 58.6388 11.7944C56.6853 16.7654 54.8409 18.6281 53.5319 19.2768C52.2231 18.6281 50.3787 16.7654 48.4256 11.7944C47.5915 9.67139 46.967 7.54099 46.5599 5.98781C46.8012 6.15078 47.0337 6.33266 47.2553 6.53424L48.3361 7.51834ZM12.077 22.1641C12.077 19.6174 13.0521 17.7922 14.897 16.8857C15.6686 16.5067 16.5503 16.3227 17.4579 16.3227C18.9745 16.3227 20.5627 16.8367 21.8252 17.8112C23.0929 18.7897 25.0908 21.064 24.2291 25.3009C23.7567 27.6235 22.601 29.644 21.0928 31.4555C16.0278 28.6171 12.077 25.6037 12.077 22.1641ZM6.74228 50.4678C8.83126 50.3594 10.921 50.2688 12.9536 50.1984C13.6005 50.1759 14.1066 49.6336 14.0841 48.9867C14.0616 48.3396 13.5233 47.8355 12.8724 47.856C11.2148 47.9134 9.51926 47.9848 7.81732 48.0676C8.1192 45.2153 11.3834 42.7232 15.1028 39.8865C17.2877 38.2198 19.6072 36.4507 21.6008 34.402C23.3967 35.3591 25.2718 36.2916 27.1185 37.21C28.9671 38.1292 30.8306 39.056 32.598 39.999C31.437 42.2048 30.2952 44.7718 29.3502 47.6638C25.4079 47.6199 21.4721 47.6369 17.5657 47.7227C16.9185 47.7369 16.4055 48.2729 16.4197 48.9201C16.4339 49.5673 16.9672 50.0856 17.6169 50.0659C26.3532 49.8742 35.2346 50.0095 44.0145 50.4678C45.9858 50.57 47.5972 52.0616 47.8459 54.0152C48.0105 55.3013 48.137 56.5915 48.2298 57.8839C48.1351 59.1808 48.0065 60.4684 47.8459 61.7141C47.5973 63.666 45.9855 65.1568 44.0126 65.2592C41.3591 65.3978 38.6934 65.5058 36.0653 65.5847C36.1216 63.9298 36.0851 62.268 35.9525 60.6224C35.7733 58.3967 33.9677 56.6268 31.7529 56.5057C27.9608 56.2982 24.1153 56.2981 20.3241 56.5057C18.1091 56.6268 16.3037 58.3967 16.1244 60.6224C15.9908 62.2805 15.9547 63.9551 16.0128 65.6226C12.9266 65.5405 9.81521 65.4201 6.74228 65.2592C4.77001 65.157 3.15807 63.6662 2.90963 61.7136C2.75243 60.4826 2.62352 59.1993 2.52539 57.898C2.61821 56.6009 2.74478 55.306 2.90963 54.0152C3.15932 52.062 4.77126 50.57 6.74228 50.4678ZM34.6604 41.1359C38.457 43.3085 41.5246 45.5812 42.5554 48.0521C38.9824 47.8815 35.3962 47.7632 31.8111 47.699C32.6559 45.2525 33.6501 43.0528 34.6604 41.1359ZM33.6161 67.3988C33.5305 68.4615 32.6744 69.3061 31.6248 69.3636C31.6247 69.3636 31.6247 69.3636 31.6247 69.3636C27.9178 69.5664 24.1591 69.5664 20.4519 69.3636C19.4023 69.3061 18.5462 68.4615 18.4605 67.3988C18.2844 65.2131 18.2844 62.9964 18.4605 60.8107C18.5462 59.748 19.4023 58.9035 20.452 58.846C22.3054 58.7446 24.1719 58.6938 26.0383 58.6938C27.9048 58.6938 29.7713 58.7446 31.6248 58.846C32.6744 58.9035 33.5305 59.748 33.6161 60.8107C33.7922 62.9964 33.7922 65.2131 33.6161 67.3988ZM44.0142 75.3658C31.6482 76.0106 19.1085 76.0106 6.74306 75.3658C4.77173 75.2624 3.15932 73.77 2.90963 71.8173C2.65118 69.7931 2.48336 67.7591 2.40211 65.7222C3.49371 66.8166 4.97768 67.5147 6.6204 67.5999C9.7863 67.7658 12.9936 67.889 16.1726 67.9716C16.5163 70.0136 18.2384 71.5899 20.3239 71.704C22.2199 71.8077 24.1292 71.8596 26.0383 71.8596C27.9475 71.8596 29.8569 71.8077 31.7526 71.704C33.851 71.5891 35.5809 69.9942 35.9097 67.9343C38.6277 67.8544 41.3879 67.7435 44.1342 67.5999C45.7779 67.5147 47.2625 66.8161 48.3542 65.7214C48.2728 67.7587 48.1047 69.7931 47.8458 71.8177C47.597 73.7703 45.9855 75.2624 44.0142 75.3658ZM73.8099 62.038C73.5688 58.5149 73.1233 55.0046 72.4811 51.5835C72.3617 50.9474 71.7498 50.5288 71.1131 50.648C70.477 50.7674 70.058 51.3799 70.1776 52.016C70.8243 55.4616 71.2645 59.001 71.4932 62.5513C70.5909 62.7361 69.5677 62.9282 68.4353 63.115C68.2936 58.402 67.7906 53.7092 66.9346 49.1456C66.8153 48.5095 66.2027 48.0909 65.5668 48.2098C64.9306 48.3292 64.5117 48.9415 64.6311 49.5776C65.4816 54.1133 65.9752 58.7808 66.1013 63.4676C62.607 63.9471 58.3396 64.3218 53.5316 64.3218C52.602 64.3218 51.6681 64.3071 50.7418 64.2795C50.8081 60.7524 50.6185 57.2214 50.1705 53.7189C49.8191 50.9593 47.7433 48.7854 45.0813 48.2481C44.2209 44.667 40.5442 41.7903 35.8051 39.0858C37.6782 35.9155 39.4306 33.777 40.1958 32.8996C44.6222 33.6362 49.0772 34.0056 53.5322 34.0056C57.9869 34.0056 62.4416 33.6364 66.8679 32.8998C67.7473 33.9055 69.9241 36.5643 72.0769 40.5146C74.5435 45.0407 77.4693 52.2148 77.6472 60.9904C76.885 61.2309 75.5781 61.6158 73.8099 62.038Z" fill="#095FAF"/>
<path d="M30.741 60.6235C29.1756 60.5502 27.5935 60.5132 26.0383 60.5132C24.4829 60.5132 22.9007 60.5502 21.3353 60.6235C20.7375 60.6515 20.2568 61.1254 20.2203 61.7229C20.1242 63.3033 20.1242 64.9062 20.2203 66.4867C20.2567 67.0842 20.7375 67.5581 21.3353 67.5861C22.8994 67.6592 24.4818 67.6964 26.0383 67.6964C27.5946 67.6964 29.1769 67.6594 30.741 67.5861C31.3388 67.5581 31.8195 67.0842 31.856 66.4867C31.9521 64.9062 31.9521 63.3034 31.856 61.7229C31.8196 61.1256 31.339 60.6515 30.741 60.6235ZM29.5655 65.289C27.2099 65.3735 24.8664 65.3735 22.5111 65.289C22.486 64.5007 22.486 63.7091 22.5111 62.9208C24.8679 62.8361 27.2087 62.8361 29.5655 62.9208C29.5906 63.7091 29.5906 64.5007 29.5655 65.289Z" fill="#095FAF"/>
</g>
<defs>
<clipPath id="clip0_3_4370">
<rect width="80" height="80" fill="white" transform="translate(0 0.401367)"/>
</clipPath>
</defs>
</svg>
