<svg width="80" height="81" viewBox="0 0 80 81" fill="none" xmlns="http://www.w3.org/2000/svg">
<g clip-path="url(#clip0_3_4379)">
<ellipse cx="29" cy="35.4014" rx="19" ry="18" fill="#009ADB"/>
<path d="M29.2252 54.8929C40.651 54.8929 49.9465 46.2943 49.9465 35.7252C49.9465 25.1562 40.6509 16.5576 29.2252 16.5576C17.7995 16.5576 8.50401 25.1562 8.50401 35.7252C8.50401 46.2943 17.7995 54.8929 29.2252 54.8929ZM29.2252 18.9037C39.3574 18.9037 47.6005 26.4498 47.6005 35.7252C47.6005 45.0007 39.3573 52.5468 29.2252 52.5468C19.0931 52.5468 10.8501 45.0007 10.8501 35.7252C10.8501 26.4498 19.0931 18.9037 29.2252 18.9037Z" fill="#095FAF"/>
<path d="M35.5707 32.7511C35.5707 34.6566 37.1209 36.2068 39.0266 36.2068C40.932 36.2068 42.4823 34.6566 42.4823 32.7511C42.4823 30.8457 40.932 29.2954 39.0266 29.2954C37.1209 29.2954 35.5707 30.8457 35.5707 32.7511ZM39.0264 31.6415C39.6382 31.6415 40.1361 32.1393 40.1361 32.7511C40.1361 33.363 39.6382 33.8608 39.0264 33.8608C38.4144 33.8608 37.9166 33.363 37.9166 32.7511C37.9166 32.1393 38.4145 31.6415 39.0264 31.6415Z" fill="#095FAF"/>
<path d="M33.4311 30.4837C35.3366 30.4837 36.8868 28.9334 36.8868 27.028C36.8868 25.1225 35.3366 23.5723 33.4311 23.5723C31.5257 23.5723 29.9754 25.1225 29.9754 27.028C29.9754 28.9334 31.5257 30.4837 33.4311 30.4837ZM33.4311 25.9182C34.043 25.9182 34.5408 26.416 34.5408 27.0278C34.5408 27.6397 34.043 28.1375 33.4311 28.1375C32.8193 28.1375 32.3215 27.6397 32.3215 27.0278C32.3215 26.416 32.8193 25.9182 33.4311 25.9182Z" fill="#095FAF"/>
<path d="M19.4238 36.2068C21.3294 36.2068 22.8797 34.6566 22.8797 32.7511C22.8797 30.8457 21.3294 29.2954 19.4238 29.2954C17.5184 29.2954 15.9681 30.8457 15.9681 32.7511C15.9681 34.6566 17.5184 36.2068 19.4238 36.2068ZM19.4238 31.6415C20.0358 31.6415 20.5337 32.1393 20.5337 32.7511C20.5337 33.363 20.0358 33.8608 19.4238 33.8608C18.812 33.8608 18.3142 33.363 18.3142 32.7511C18.3142 32.1393 18.812 31.6415 19.4238 31.6415Z" fill="#095FAF"/>
<path d="M25.0189 30.4837C26.9243 30.4837 28.4746 28.9334 28.4746 27.028C28.4746 25.1225 26.9243 23.5723 25.0189 23.5723C23.1134 23.5723 21.5632 25.1225 21.5632 27.028C21.5632 28.9334 23.1134 30.4837 25.0189 30.4837ZM25.0189 25.9182C25.6307 25.9182 26.1286 26.416 26.1286 27.0278C26.1286 27.6397 25.6307 28.1375 25.0189 28.1375C24.407 28.1375 23.9092 27.6397 23.9092 27.0278C23.9092 26.416 24.407 25.9182 25.0189 25.9182Z" fill="#095FAF"/>
<path d="M23.3009 35.1701C23.1379 35.9369 22.7023 36.6382 22.0412 37.1983C20.5563 38.4561 19.7803 40.2935 19.912 42.2393C20.1172 45.2703 22.5597 47.6898 25.5934 47.8673C26.5939 47.9255 27.5982 47.7364 28.4985 47.3193C28.9533 47.1086 29.4965 47.1086 29.9513 47.3193C30.7449 47.687 31.6193 47.8777 32.5005 47.8777C32.6191 47.8777 32.7379 47.8742 32.8565 47.8673C35.8902 47.6897 38.3326 45.2701 38.5378 42.2392C38.6695 40.2934 37.8934 38.4559 36.4087 37.1983C35.7476 36.6382 35.312 35.9369 35.1492 35.1702C34.8662 33.8391 34.161 32.669 33.1095 31.7865C30.8947 29.9273 27.5549 29.9273 25.3402 31.7865C24.2889 32.6692 23.5838 33.8392 23.3009 35.1701ZM26.8487 33.5832C28.2033 32.446 30.2464 32.446 31.601 33.5832C32.2479 34.1261 32.6811 34.8435 32.8541 35.6577C33.1261 36.9374 33.8307 38.0892 34.8921 38.9883C35.8022 39.7593 36.2778 40.8865 36.1969 42.0807C36.0713 43.9357 34.5763 45.4165 32.7191 45.5252C32.0957 45.5616 31.4956 45.4492 30.9373 45.1905C30.3931 44.9384 29.809 44.8125 29.2248 44.8125C28.6406 44.8125 28.0563 44.9385 27.5122 45.1905C26.954 45.4492 26.3542 45.562 25.7304 45.5252C23.8733 45.4165 22.3783 43.9357 22.2527 42.0809C22.1718 40.8864 22.6474 39.7593 23.5575 38.9883C24.6189 38.0893 25.3236 36.9376 25.5956 35.6577C25.7688 34.8437 26.202 34.1262 26.8487 33.5832Z" fill="#095FAF"/>
<path d="M75.379 63.2024C77.8704 60.0238 79.2414 56.0695 79.2414 52.0174C79.2414 42.0057 71.0962 33.8606 61.0846 33.8606C59.2129 33.8606 57.3843 34.1418 55.6275 34.6961C55.5012 28.8965 55.2004 23.1048 54.7235 17.344C54.5531 15.2976 54.9996 13.3013 56.0149 11.5706C57.3949 9.21685 58.6306 6.00168 56.68 4.05087C55.8438 3.21537 53.7003 2.00418 44.7773 1.13615C39.2074 0.594368 33.0913 0.401367 29.2247 0.401367C25.3581 0.401367 19.242 0.594368 13.672 1.1363C4.74895 2.00434 2.60561 3.21552 1.76917 4.05134C-0.181331 6.00168 1.05441 9.21685 2.4345 11.571C3.44971 13.3015 3.89624 15.2978 3.72561 17.3437C3.65945 18.1348 3.59392 18.977 3.51978 19.9946C3.47255 20.6407 3.95818 21.2028 4.60428 21.2499C5.25054 21.2972 5.81249 20.8115 5.85957 20.1654C5.93323 19.1564 5.99798 18.3218 6.06352 17.539C6.27451 15.0081 5.71927 12.5338 4.4582 10.3841C4.39407 10.2746 4.33402 10.1675 4.27427 10.0605C7.82555 8.56512 19.4228 7.58995 29.2249 7.58995C32.9557 7.58995 38.876 7.77388 44.3027 8.28985C50.2958 8.85978 52.9765 9.56813 54.1717 10.0664C54.1131 10.1714 54.0543 10.2765 53.9913 10.3839C52.73 12.5338 52.1746 15.008 52.3855 17.5384C53.6017 32.2306 53.6656 47.1265 52.5827 61.8335C50.0659 61.8329 47.5486 61.8528 45.0445 61.8938C44.7231 57.9033 41.373 54.7546 37.3012 54.7546C33.0177 54.7546 29.5327 58.2396 29.5327 62.5231C29.5327 64.3946 30.2027 66.1792 31.4031 67.5781C31.1028 67.9279 30.8358 68.3019 30.6042 68.6954C23.5877 68.7469 16.4796 68.4043 9.46668 67.6735C7.63318 67.4834 6.19349 66.0068 6.04334 64.1618C4.97386 51.1104 4.80979 37.8709 5.55568 24.8108C5.59259 24.1641 5.0982 23.6098 4.45147 23.5727C3.80491 23.5361 3.25046 24.0302 3.21339 24.677C2.46125 37.8451 2.62672 51.1941 3.70496 64.3524C3.94645 67.3223 6.26794 69.7003 9.2241 70.0067C15.8587 70.6981 22.5768 71.0475 29.2274 71.0474C29.3843 71.0474 29.5408 71.0452 29.6977 71.0447C29.5899 71.5623 29.5325 72.0936 29.5325 72.6327C29.5325 76.9162 33.0175 80.4012 37.3011 80.4012C41.3728 80.4012 44.723 77.2527 45.0444 73.2621C49.9781 73.3431 54.9627 73.3431 59.8951 73.2621C60.2166 77.2525 63.5669 80.4012 67.6386 80.4012C68.8886 80.4012 70.1326 80.0967 71.2361 79.5203C71.8104 79.2205 72.0328 78.5119 71.733 77.9376C71.4328 77.3632 70.7242 77.1407 70.1502 77.4408C69.3696 77.8484 68.5245 78.0552 67.6386 78.0552C64.6487 78.0552 62.216 75.6226 62.216 72.6327C62.216 72.4969 62.2232 72.349 62.2387 72.1669C62.2667 71.836 62.153 71.5086 61.9259 71.2662C61.6988 71.0238 61.3797 70.889 61.0474 70.8954C55.3565 71.0041 49.5846 71.0041 43.8925 70.8954C43.562 70.8891 43.2412 71.0238 43.014 71.2662C42.7869 71.5086 42.6732 71.836 42.7012 72.1669C42.7165 72.3477 42.7237 72.4958 42.7237 72.6327C42.7237 75.6226 40.2912 78.0552 37.3012 78.0552C34.3113 78.0552 31.8787 75.6226 31.8787 72.6327C31.8787 71.0269 32.5863 69.5118 33.8202 68.4761C34.0856 68.2533 34.239 67.9243 34.239 67.5778C34.239 67.2312 34.0857 66.9023 33.8202 66.6794C32.5863 65.6437 31.8787 64.1288 31.8787 62.5228C31.8787 59.5329 34.3113 57.1003 37.3012 57.1003C40.2912 57.1003 42.7237 59.5329 42.7237 62.5228C42.7237 62.6597 42.7165 62.8078 42.7012 62.9886C42.6732 63.3195 42.7869 63.6469 43.014 63.8893C43.2412 64.1317 43.5617 64.2673 43.8925 64.2601C49.5845 64.1516 55.3563 64.1516 61.0474 64.2601C61.38 64.2673 61.6988 64.1317 61.9259 63.8893C62.153 63.6469 62.2667 63.3195 62.2387 62.9886C62.2232 62.8065 62.216 62.6586 62.216 62.5228C62.216 59.5329 64.6487 57.1003 67.6386 57.1003C70.6294 57.1003 73.0627 59.5329 73.0627 62.5228C73.0627 64.1291 72.3548 65.6438 71.1202 66.6789C70.8544 66.9018 70.7009 67.2309 70.7009 67.5778C70.7009 67.9247 70.8543 68.2537 71.1202 68.4766C72.3548 69.5117 73.0627 71.0266 73.0627 72.6327C73.0627 73.3174 72.9369 73.9845 72.6889 74.6151C72.4516 75.218 72.7483 75.8988 73.3511 76.1361C73.954 76.3732 74.635 76.0767 74.8721 75.4739C75.2281 74.5686 75.4087 73.6129 75.4087 72.6328C75.4087 70.761 74.7384 68.9765 73.5374 67.5779C74.5923 66.3498 75.2375 64.8237 75.379 63.2024ZM29.225 5.24375C29.0128 5.24375 9.65218 5.27754 3.32631 7.9381C3.00318 6.89615 3.02633 6.1121 3.42797 5.71046C3.74532 5.39327 5.43837 4.29439 13.8993 3.47124C19.3857 2.93759 25.4134 2.74741 29.2247 2.74741C33.0361 2.74741 39.0637 2.93759 44.5502 3.47124C53.0111 4.29439 54.7041 5.39327 55.0212 5.71015C55.4231 6.1121 55.4464 6.89599 55.1233 7.93795C48.7973 5.27769 29.4374 5.24375 29.225 5.24375ZM67.639 54.7544C63.5672 54.7544 60.2169 57.903 59.8955 61.8936C58.2465 61.8665 56.5911 61.852 54.9344 61.8429C55.5329 53.6501 55.78 45.3998 55.6709 37.158C57.3999 36.5265 59.2173 36.2066 61.0846 36.2066C69.8026 36.2066 76.8953 43.2994 76.8953 52.0174C76.8953 54.7257 76.1926 57.3844 74.8856 59.7254C73.7599 56.8205 70.937 54.7544 67.639 54.7544Z" fill="#095FAF"/>
</g>
<defs>
<clipPath id="clip0_3_4379">
<rect width="80" height="80" fill="white" transform="translate(0 0.401367)"/>
</clipPath>
</defs>
</svg>
