<svg width="80" height="81" viewBox="0 0 80 81" fill="none" xmlns="http://www.w3.org/2000/svg">
<g clip-path="url(#clip0_3_4349)">
<path d="M10 31.4015L9 25.9015V20.9015C9.16667 19.7348 9.6 17.4015 10 17.4015C10.4 17.4015 13 16.4015 15 15.9015L19 15.4015C20 15.4015 20.5 15.4015 25.5 14.4015C25.8922 14.323 28.5 13.9015 29.5 13.9015L28 11.9015L30 13.9015L32 15.9015L32.5 17.4015C31.8333 17.5681 30.3 17.9015 29.5 17.9015H25.5L23.5 18.9015V20.4015C23.5 20.8015 23.1667 24.2348 23 25.9015L22.5 30.9015L20.5 31.4015H11H10Z" fill="#009ADB"/>
<path d="M47 17.9015L49 15.4015L55.5 10.9015L63 7.90146C65.3333 7.23479 70.6 6.20146 73 7.40146C76 8.90146 76.5 9.40146 79 13.9015C78.8333 17.4015 78.2 24.7015 77 25.9015L74.5 30.4015L73 31.4015H65.5H54.5H51V27.9015C51 27.4015 50.5 23.9015 50.5 23.4015V20.4015L50 18.4015L49 17.9015H47Z" fill="#009ADB"/>
<path d="M57.4365 14.3538C56.7408 15.0494 56.3577 15.9743 56.3577 16.9581C56.3577 17.9419 56.7408 18.8667 57.4363 19.5624L65.9502 28.0763C66.6459 28.7719 67.5707 29.1549 68.5544 29.1549C69.5382 29.1549 70.463 28.7718 71.1585 28.0763C71.8542 27.3806 72.2373 26.4558 72.2373 25.472C72.2373 24.4882 71.8542 23.5633 71.1587 22.8677L62.6448 14.3536C61.2089 12.9178 58.8721 12.9181 57.4365 14.3538ZM69.5014 24.5251C69.7543 24.7779 69.8936 25.1143 69.8936 25.472C69.8936 25.8296 69.7543 26.1659 69.5013 26.4189C69.2485 26.6719 68.912 26.8111 68.5544 26.8111C68.1967 26.8111 67.8604 26.6719 67.6075 26.4189L59.0935 17.9048C58.8407 17.652 58.7013 17.3156 58.7013 16.9579C58.7013 16.6002 58.8407 16.264 59.0937 16.011C59.3547 15.7499 59.6975 15.6194 60.0406 15.6194C60.3834 15.6194 60.7266 15.7499 60.9875 16.011L69.5014 24.5251Z" fill="#095FAF"/>
<path d="M79.7151 35.9288C79.2251 33.5079 77.4773 31.5661 75.2416 30.7419C80.7858 21.4923 81.5545 12.8304 77.1191 8.3948C75.1734 6.44926 72.3554 5.45313 68.9639 5.51563C68.3168 5.52751 67.8018 6.06174 67.8137 6.7088C67.8254 7.34867 68.3478 7.85931 68.985 7.85931C68.9923 7.85931 68.9997 7.85931 69.007 7.85916C71.7817 7.80775 73.956 8.54621 75.4618 10.052C77.7905 12.3807 77.8533 15.9188 77.4961 18.4769C76.9908 22.0945 75.3541 26.1742 72.7581 30.3103C65.999 30.1814 59.2107 30.0923 52.4114 30.0436C52.3672 26.0522 52.1203 22.0122 51.6714 18.0156C51.61 17.47 51.1781 17.04 50.6321 16.9812C50.2826 16.9437 49.9326 16.9103 49.5829 16.8756C54.5301 12.6921 59.8192 9.74532 64.6878 8.48918C65.3146 8.32745 65.6914 7.68837 65.5297 7.06163C65.3681 6.43488 64.7286 6.05784 64.1022 6.21972C62.2365 6.70114 60.3176 7.41117 58.3834 8.32636C58.7601 6.68833 58.9396 4.72466 58.2205 3.25945C57.7874 2.37645 57.0702 1.7744 56.1467 1.51829C54.7784 1.13922 52.6528 1.33829 50.2913 4.44075C50.1771 4.59091 50.0666 4.74216 49.9604 4.89264C49.9476 4.84811 49.9346 4.80373 49.9212 4.7592C49.4571 3.21508 48.2439 0.624512 45.3298 0.624512C44.3177 0.624512 43.4353 1.02796 42.7775 1.79112C41.9188 2.78756 41.5432 4.33527 41.4084 5.87783C40.3828 4.52903 39.1405 3.44493 37.7967 3.44493C36.9237 3.44493 36.1275 3.88963 35.5552 4.69716C34.0473 6.82443 34.0254 11.4346 35.4261 16.2648C35.0753 16.2692 34.7247 16.2771 34.374 16.2845C32.078 13.6053 29.3026 11.7615 28.0886 11.0236V8.4548C28.6388 8.35839 29.0571 7.87947 29.0571 7.30163V3.99292C29.0571 2.20973 27.6064 0.759048 25.8232 0.759048H18.5358C16.7526 0.759048 15.3019 2.20973 15.3019 3.99292V7.30163C15.3019 7.87947 15.7205 8.35839 16.2707 8.4548L16.2698 11.0232C14.6875 11.9842 10.4608 14.8166 8.09524 18.9294C7.61272 19.7648 7.38928 20.7276 7.44975 21.7159C7.56319 23.5171 7.84492 27.0188 8.45729 30.2887C7.97743 30.2975 7.49709 30.3055 7.01755 30.3147C3.76242 30.3761 0.930757 32.7373 0.284796 35.9283C-0.0949059 37.7979 -0.0949059 39.6939 0.284639 41.5626C0.75872 43.908 2.42019 45.8437 4.61464 46.6982C4.7434 49.0838 4.96388 52.4764 5.32483 56.3322C4.35745 59.0721 3.40991 61.813 2.49082 64.5483C1.7 66.9045 2.75879 69.5194 4.95512 70.6316C5.79078 71.0534 6.66941 71.3807 7.56866 71.6082C8.40916 73.9916 9.90922 76.0478 11.9418 77.5846C14.1862 79.2815 16.8607 80.1784 19.6761 80.1784H60.3241C63.1395 80.1784 65.8139 79.2815 68.0584 77.5846C70.0911 76.0476 71.5912 73.9913 72.4317 71.6076C73.3352 71.3781 74.2136 71.0504 75.0455 70.6299C77.2423 69.5197 78.3014 66.9045 77.5092 64.5467C76.5893 61.8097 75.6421 59.069 74.6755 56.3311C75.0363 52.4755 75.2568 49.083 75.3856 46.6976C77.5825 45.841 79.2419 43.9064 79.7152 41.5637C80.0948 39.6938 80.0948 37.7978 79.7151 35.9288ZM49.4433 19.2149C49.8184 22.8135 50.0268 26.4417 50.0677 30.0298C41.3752 29.9794 32.6685 29.9936 23.9847 30.0739C24.0246 26.4719 24.2332 22.8288 24.6096 19.2147C32.8537 18.3922 41.1988 18.3922 49.4433 19.2149ZM37.4673 6.05253C37.5526 5.93221 37.679 5.78877 37.7967 5.78877C38.6404 5.78877 40.4102 8.19604 41.6688 11.0552C41.876 11.5618 42.4098 11.8596 42.9536 11.7654C43.5152 11.6679 43.9252 11.1807 43.9252 10.6107C43.9252 10.5394 43.9184 10.468 43.9053 10.3977C43.3195 6.4377 43.9706 3.99682 44.5532 3.32102C44.7663 3.07367 44.9986 2.96819 45.3299 2.96819C48.0316 2.96819 48.122 8.3437 48.1222 8.39652C48.1222 8.95045 48.5102 9.42828 49.0521 9.54265C49.5949 9.65719 50.1424 9.37609 50.3663 8.86935C51.2042 6.97412 53.5641 3.23523 55.5201 3.77713C55.7986 3.85432 55.9769 4.00839 56.1159 4.29215C56.6145 5.30812 56.3477 7.55524 55.4747 9.85126C52.3753 11.633 49.2841 13.9122 46.3528 16.5978C43.5323 16.391 40.7036 16.2782 37.8742 16.2595C36.2413 11.1402 36.6238 7.24257 37.4673 6.05253ZM25.7448 10.5241H18.6139L18.6147 8.47355H25.745V10.5241H25.7448ZM18.5358 3.10273H25.8232C26.314 3.10273 26.7133 3.50196 26.7133 3.99276V6.12925H17.6458V3.99292C17.6458 3.50212 18.045 3.10273 18.5358 3.10273ZM10.768 29.8943C10.1738 26.7388 9.89953 23.3235 9.78905 21.5708C9.75702 21.0454 9.87312 20.5374 10.1259 20.0998C12.3612 16.2134 16.6813 13.5006 17.7548 12.8678H26.6036C27.2885 13.2709 29.2985 14.5224 31.2444 16.3874C28.6302 16.5059 26.0204 16.7021 23.4213 16.9814C22.8752 17.04 22.4431 17.47 22.3819 18.0158C21.9311 22.0309 21.684 26.0891 21.6414 30.0976C18.0431 30.1359 14.4491 30.1844 10.8627 30.2451C10.8242 30.1308 10.7908 30.0142 10.768 29.8943ZM6.98848 47.1758C6.99833 47.1761 7.00801 47.177 7.01786 47.1772L7.05536 47.1778C7.58085 47.1876 8.10634 47.1962 8.63198 47.2056C8.16228 48.4682 7.69585 49.7321 7.2349 50.9979C7.13161 49.5702 7.05098 48.2822 6.98848 47.1758ZM60.3239 77.8344H19.676C15.5375 77.8344 11.7901 75.3504 10.1088 71.6446C11.6483 71.2607 12.9834 70.1526 13.5962 68.5897C14.2716 66.8682 14.8852 65.2822 15.4722 63.7414C15.7027 63.1365 15.3993 62.4595 14.7944 62.229C14.1895 61.9987 13.5125 62.302 13.282 62.9068C12.6976 64.4406 12.0866 66.0194 11.4141 67.734C10.9285 68.9727 9.60467 69.6822 8.33181 69.3832C7.5321 69.1967 6.75129 68.9128 6.01251 68.5398C4.84825 67.9503 4.28948 66.5548 4.71262 65.2944C7.71726 56.3531 10.9947 47.3486 14.4538 38.5312C14.9402 37.2923 16.2649 36.5823 17.5343 36.8796C18.3419 37.0691 19.1228 37.3535 19.8568 37.7254C21.0213 38.3136 21.5796 39.7085 21.1556 40.9702C19.1892 46.8211 17.096 52.7291 14.9338 58.5303C14.7077 59.1367 15.0161 59.8115 15.6226 60.0377C16.2291 60.2639 16.9039 59.9553 17.13 59.3489C18.6034 55.3954 20.0438 51.3926 21.4354 47.3919C27.5975 47.4587 33.7981 47.4933 39.9999 47.4933C46.2021 47.4933 52.4034 47.4589 58.566 47.3919C61.04 54.5048 63.6657 61.6118 66.4035 68.5886C67.0165 70.1515 68.3517 71.2596 69.8914 71.6437C68.2104 75.3499 64.4625 77.8344 60.3239 77.8344ZM73.9882 68.538C73.2513 68.9103 72.4701 69.1947 71.6664 69.383C70.3965 69.6807 69.0717 68.9711 68.5855 67.7323C65.1335 58.9351 61.8561 49.9306 58.8443 40.9688C58.4204 39.7075 58.9788 38.3125 60.1434 37.724C60.88 37.3517 61.6613 37.0673 62.4651 36.879C62.6599 36.8334 62.856 36.8113 63.0501 36.8113C64.1219 36.8113 65.1344 37.4809 65.546 38.5297C68.998 47.3269 72.2753 56.3314 75.2871 65.2933C75.711 66.5546 75.1526 67.9495 73.9882 68.538ZM71.3688 47.2056C71.8935 47.1962 72.4184 47.1876 72.9431 47.1778L72.985 47.177C72.9939 47.1769 73.0028 47.1759 73.0117 47.1758C72.9491 48.2817 72.8684 49.5693 72.7653 50.9964C72.3043 49.7307 71.8381 48.4674 71.3688 47.2056ZM77.4178 41.0982C77.0634 42.8517 75.7121 44.2635 73.968 44.6963C73.6392 44.7801 73.2917 44.8263 72.9383 44.8336L72.8994 44.8344C72.0984 44.8494 71.2976 44.8633 70.4966 44.8769C69.5872 42.4642 68.6645 40.0608 67.7278 37.6735C66.8195 35.358 64.3262 34.0354 61.9304 34.597C60.9455 34.8278 59.9884 35.1761 59.086 35.6324C56.8892 36.7426 55.8301 39.3578 56.6224 41.7156C56.9964 42.8286 57.3746 43.9422 57.7566 45.056C45.9637 45.1785 34.035 45.1785 22.242 45.056C22.6242 43.9419 23.0036 42.8283 23.3769 41.7171C24.1699 39.3586 23.1106 36.7432 20.9145 35.6339C20.0157 35.1786 19.0586 34.83 18.0692 34.5976C15.6733 34.0365 13.1809 35.3594 12.2716 37.6749C11.3346 40.0633 10.4122 42.4662 9.50358 44.8771C8.70198 44.8635 7.90023 44.8494 7.09864 44.8346L7.06411 44.834C6.70769 44.8265 6.36049 44.7802 6.02485 44.6947C4.2876 44.2636 2.93599 42.8519 2.58144 41.0973C2.26471 39.537 2.26471 37.955 2.5816 36.3941C3.01162 34.2703 4.89575 32.6991 7.06192 32.6582C28.9179 32.2387 51.0815 32.2387 72.9378 32.6582C75.1037 32.6991 76.9878 34.2703 77.418 36.3949C77.735 37.9548 77.735 39.5369 77.4178 41.0982Z" fill="#095FAF"/>
<path d="M24.5096 51.5049H24.4305C21.7466 51.5113 19.5808 53.6296 19.4998 56.3276C19.4047 59.505 19.4047 62.7273 19.4998 65.9048C19.5808 68.6025 21.7465 70.7209 24.4314 70.7275H24.5096C27.1934 70.7209 29.3593 68.6027 29.4402 65.9048C29.5354 62.7273 29.5354 59.505 29.4402 56.3276C29.3591 53.6295 27.1934 51.5113 24.5096 51.5049ZM27.0973 65.8345C27.0553 67.2367 25.8918 68.3802 24.5049 68.3835H24.4361C23.0481 68.3802 21.8846 67.2365 21.8426 65.8345C21.7487 62.7036 21.7487 59.5286 21.8426 56.3977C21.8846 54.9955 23.0481 53.852 24.4369 53.8487H24.503H24.5038C25.8918 53.852 27.0553 54.9955 27.0973 56.3977C27.1912 59.5286 27.1912 62.7036 27.0973 65.8345Z" fill="#095FAF"/>
<path d="M40.0393 51.5049H39.9603C37.2764 51.5113 35.1106 53.6296 35.0296 56.3276C34.9345 59.505 34.9345 62.7273 35.0296 65.9048C35.1106 68.6025 37.2763 70.7209 39.9612 70.7275H40.0393C42.7233 70.7209 44.889 68.6025 44.97 65.9048C45.0651 62.7273 45.0651 59.505 44.97 56.3276C44.889 53.6296 42.7233 51.5113 40.0393 51.5049ZM42.6271 65.8345C42.5851 67.2367 41.4217 68.3802 40.0348 68.3835H39.9661C38.578 68.3802 37.4146 67.2365 37.3725 65.8345C37.2786 62.7036 37.2786 59.5286 37.3725 56.3977C37.4146 54.9955 38.578 53.852 39.9668 53.8487H40.0329H40.0337C41.4217 53.852 42.5851 54.9955 42.6271 56.3977C42.721 59.5286 42.721 62.7036 42.6271 65.8345Z" fill="#095FAF"/>
<path d="M55.5692 51.5049H55.4903C52.8063 51.5113 50.6406 53.6296 50.5597 56.3276C50.4645 59.505 50.4645 62.7273 50.5597 65.9048C50.6406 68.6025 52.8063 70.7211 55.4912 70.7275H55.5694C58.2534 70.7209 60.4191 68.6025 60.5 65.9048C60.5952 62.7273 60.5952 59.505 60.5 56.3276C60.4191 53.6296 58.2534 51.5113 55.5692 51.5049ZM58.1571 65.8345C58.1151 67.2367 56.9518 68.3802 55.5647 68.3835H55.4961C54.1081 68.3802 52.9447 67.2365 52.9027 65.8345C52.8086 62.7036 52.8086 59.5286 52.9027 56.3977C52.9447 54.9955 54.1081 53.852 55.4969 53.8487H55.563H55.5639C56.9519 53.852 58.1152 54.9955 58.1573 56.3977C58.251 59.5286 58.251 62.7036 58.1571 65.8345Z" fill="#095FAF"/>
</g>
<defs>
<clipPath id="clip0_3_4349">
<rect width="80" height="80" fill="white" transform="translate(0 0.401367)"/>
</clipPath>
</defs>
</svg>
