<svg width="76" height="81" viewBox="0 0 76 81" fill="none" xmlns="http://www.w3.org/2000/svg">
<g clip-path="url(#clip0_3_4414)">
<path d="M29 31.9014C28.6 32.3014 28.5 34.4014 28.5 35.4014C28.5 35.568 28.9 35.8014 30.5 35.4014C32.5 34.9014 31.5 34.9014 32.5 33.9014C33.5 32.9014 33 33.9014 35 34.4014C37 34.9014 36 35.4014 37 35.9014C38 36.4014 38 35.9014 38.5 35.9014C39 35.9014 40 34.9014 41 34.4014C42 33.9014 42 33.9014 42.5 33.4014C42.9 33.0014 43 32.568 43 32.4014C43 32.068 42.9 31.2014 42.5 30.4014C42 29.4014 41.5 28.9014 41 28.4014C40.5 27.9014 39.5 27.9014 38.5 27.4014C37.5 26.9014 36.5 27.4014 35.5 27.4014C34.5 27.4014 32.5 27.9014 32 27.9014C31.5 27.9014 30.5 29.4014 30 29.9014C29.5 30.4014 29.5 31.4014 29 31.9014Z" fill="#009ADB"/>
<path d="M53.5 21.9014C53 22.4014 50 33.4014 50 33.9014C50.3333 34.2347 51.5 35.1014 53.5 35.9014C55.5 36.4014 54.5 35.4014 56 34.9014C57.5 34.4014 57 34.4014 58.5 34.4014C60 34.4014 59.5 34.4014 61 35.4014C62.5 36.4014 62 35.4014 63 35.4014C63.8 35.4014 64.3333 34.4014 64.5 33.9014L66.5 29.9014L70.5 20.9014L73.5 9.40137L69.5 8.90137C66.1667 8.7347 59.4 8.40137 59 8.40137C58.6 8.40137 57.8333 11.068 57.5 12.4014C56.3333 15.4014 53.9 21.5014 53.5 21.9014Z" fill="#009ADB"/>
<path d="M23 68.4014C17 70.0014 14.8333 64.4014 14.5 61.4014H13.5C13.1666 61.2347 12.3999 60.9014 11.9999 60.9014C11.4999 60.9014 8.49994 60.4014 7.99999 60.4014C7.50005 60.4014 4.99994 60.9014 4.99994 61.4014C4.99994 61.9014 2.99999 64.4014 2.49999 64.9014C1.99999 65.4014 2.49999 69.4014 2.49999 69.9014C2.49999 70.4014 3.49999 72.9014 3.49999 73.4014C3.49999 73.9014 3.99999 74.9014 4.49999 75.9014C4.99999 76.9014 5.49999 77.4014 6.49999 78.4014C7.49999 79.4014 6.49999 78.9014 7.99999 78.9014C9.49999 78.9014 9.49999 78.9014 10.5 78.4014C11.5 77.9014 13 77.9014 13.5 77.9014C14 77.9014 14.5 78.9014 15.5 78.9014C16.5 78.9014 16.5 79.4014 17.5 78.9014C18.5 78.4014 19 78.4014 20 77.9014C21 77.4014 22 74.4014 22 73.9014C22 73.5014 22.6667 70.068 23 68.4014Z" fill="#009ADB"/>
<path d="M61.9731 12.8133L64.509 11.9878L67.1131 19.9884L64.5773 20.8133L61.9731 12.8133Z" fill="#095FAF"/>
<path d="M58.0649 22.1483L60.6008 21.3228L63.2056 29.3221L60.6698 30.1483L58.0649 22.1483Z" fill="#095FAF"/>
<path d="M13.104 26.0375C12.8228 28.0746 13.4172 30.1358 14.7414 31.7093L16.6665 34.1241V56.4014H19.3332V36.2269L21.2596 37.5108C21.7082 37.8096 22.2915 37.8096 22.7401 37.5108L25.9998 35.335L29.2596 37.5082C29.7082 37.807 30.2915 37.807 30.7401 37.5082L33.9998 35.335L37.2596 37.5082C37.7082 37.807 38.2915 37.807 38.7401 37.5082L41.9998 35.335L45.2596 37.5082C45.7082 37.807 46.2915 37.807 46.7401 37.5082L49.9998 35.335L52.6665 37.1123V77.7347H23.3332V80.4014H60.6665C64.3468 80.3968 67.3286 77.4151 67.3332 73.7347V33.7347C67.3299 33.4418 67.229 33.1579 67.0467 32.9281L74.7518 12.4151C75.7889 9.65922 75.4093 6.57068 73.7362 4.14815C72.1463 1.79789 69.4914 0.392942 66.6548 0.401405C63.0389 0.435259 59.8182 2.69437 58.5558 6.08305L56.4653 11.6481L53.9998 9.18265V4.4014C53.9998 3.66508 53.4028 3.06807 52.6665 3.06807H37.9998C37.2635 3.06807 36.6665 3.66508 36.6665 4.4014V6.68917C35.1593 5.32328 32.8859 5.24581 31.2889 6.50687V4.4014C31.2889 2.21911 29.52 0.449582 27.3371 0.449582C25.1548 0.449582 23.3853 2.21911 23.3853 4.4014V6.50818C22.6554 5.90336 21.7368 5.57263 20.7889 5.57458C19.6886 5.57198 18.634 6.01599 17.8664 6.8057C16.285 8.43526 16.2752 11.0238 17.8436 12.6657L19.0851 13.947C18.6333 14.154 18.2231 14.4418 17.8748 14.7959L17.8664 14.8011L17.8534 14.8148C17.5428 15.1338 17.2856 15.501 17.0929 15.9027L15.5734 13.0961L13.2277 14.3656L16.6756 20.7295C16.5213 20.8174 16.3664 20.9027 16.2199 21.003C16.1652 21.0401 16.117 21.083 16.0636 21.1202L10.9041 16.3656L9.09619 18.3265L14.2212 23.0518C13.6326 23.9522 13.2511 24.9717 13.104 26.0375ZM41.2596 32.6254L37.9998 34.8011L34.7401 32.628C34.2915 32.3291 33.7082 32.3291 33.2596 32.628L30.0304 34.7816C30.0226 34.6481 29.9998 34.5323 29.9998 34.404C29.9914 31.4737 32.1066 28.9678 34.9966 28.4847C37.8872 28.001 40.7023 29.682 41.6476 32.4561C41.5103 32.4919 41.3794 32.5485 41.2596 32.6254ZM44.6665 33.9105L44.6411 33.8936C44.481 31.0909 42.9712 28.5401 40.591 27.0511C38.2114 25.5622 35.257 25.32 32.6665 26.4014V17.7347H44.6665V33.9105ZM64.6665 73.7347C64.6665 75.9437 62.8755 77.7347 60.6665 77.7347H55.3332V37.1149L57.9998 35.335L61.2596 37.5082C61.7082 37.807 62.2915 37.807 62.7401 37.5082L64.6665 36.2269V73.7347ZM61.0519 7.01989C61.9211 4.66963 64.1489 3.09867 66.6548 3.06807C68.6144 3.06417 70.4471 4.03617 71.5441 5.65987C72.7212 7.36495 72.9868 9.53877 72.2557 11.4776L63.9998 33.4678L61.9998 34.8011L58.7401 32.628C58.2915 32.3291 57.7082 32.3291 57.2596 32.628L53.9998 34.8011L51.2948 32.9978L61.0519 7.01989ZM55.436 14.3897L48.3599 33.2256L47.3332 33.9105V16.9535L52.6665 11.6202L55.436 14.3897ZM39.3332 5.73474H51.3332V8.4014H39.3332V5.73474ZM38.5519 11.0681H49.4477L45.4478 15.0681H34.5519L38.5519 11.0681ZM19.7694 8.67614C20.0369 8.4001 20.4048 8.24385 20.7889 8.24385C21.1737 8.2445 21.5415 8.4001 21.8091 8.67614L23.7668 10.6761C24.147 11.0642 24.7244 11.182 25.2264 10.9756C25.7283 10.7686 26.0552 10.2777 26.0519 9.73474V4.4014C26.0304 3.9281 26.2707 3.48148 26.6769 3.23864C27.0838 2.99516 27.591 2.99516 27.9972 3.23864C28.4041 3.48148 28.6444 3.9281 28.6222 4.4014V9.73474C28.6229 10.2758 28.9504 10.7627 29.4517 10.9672C29.9523 11.1722 30.5272 11.0537 30.9067 10.6683L32.8703 8.66833C33.4328 8.1143 34.3351 8.1143 34.897 8.66833C35.4764 9.26143 35.4764 10.208 34.897 10.8011L30.9692 14.8011L31.0089 14.8415L30.3905 15.46C30.283 15.5707 30.1964 15.6996 30.1333 15.8402C30.1144 15.8812 30.104 15.9229 30.089 15.9652C30.0493 16.0791 30.0252 16.1976 30.0174 16.3174C30.0174 16.3467 30.0011 16.3708 30.0011 16.4001V28.1612C29.6978 28.4515 29.4158 28.7634 29.1587 29.0948L26.6398 23.7347C25.7101 21.8851 24.0298 20.5245 22.0265 20.0017C21.5604 19.8812 21.0825 19.8083 20.6014 19.7855L20.2596 19.3851C19.9933 19.0798 19.7922 18.8415 19.7596 18.8083C19.4152 18.4476 19.2661 17.9424 19.3599 17.4522C19.4093 17.1735 19.5376 16.9157 19.729 16.708L19.7531 16.6853L19.7863 16.6495C20.2694 16.1761 21.0174 16.1065 21.5799 16.4815C22.1457 16.8597 22.9048 16.751 23.3423 16.2302C23.7798 15.7087 23.7544 14.9424 23.2837 14.4509L19.7596 10.8135C19.1873 10.2146 19.1919 9.26989 19.7694 8.67614ZM15.7466 26.4014C15.9204 25.1091 16.6359 23.9515 17.7147 23.2185C18.7843 22.4952 20.1131 22.266 21.3638 22.5896C22.6138 22.9138 23.6645 23.7595 24.2479 24.9118L27.6463 32.1508C27.5623 32.4626 27.4959 32.779 27.4478 33.0987L26.7453 32.6293C26.2974 32.3304 25.7134 32.3304 25.2655 32.6293L21.9998 34.8011L19.0428 32.8278L18.757 32.4698L22.1945 29.8122L20.5623 27.7028L17.0962 30.3838L16.8 30.0147C15.9517 29.0147 15.5688 27.7009 15.7466 26.4014Z" fill="#095FAF"/>
<path d="M3.51375 77.076C4.52677 79.1196 6.61401 80.4093 8.89461 80.4015C9.82886 80.4002 10.7494 80.1828 11.5854 79.7668L12.6667 79.2257L13.7494 79.7668C14.5847 80.1828 15.5053 80.4002 16.4389 80.4015C18.7201 80.4093 20.8067 79.1196 21.8204 77.076L22.2852 76.1431C23.8464 73.0103 24.6615 69.5591 24.6667 66.0591C24.6622 62.1997 21.5352 59.0728 17.6759 59.0682C16.3751 59.0721 15.101 59.4412 14.0001 60.1346V59.0682C14.0001 56.1229 11.6121 53.7349 8.66675 53.7349V56.4015C10.1394 56.4015 11.3334 57.5955 11.3334 59.0682V60.1346C10.2325 59.4412 8.95842 59.0721 7.65763 59.0682C3.79826 59.0728 0.671305 62.1997 0.666748 66.0591C0.671305 69.5597 1.48641 73.0122 3.04826 76.1457L3.51375 77.076ZM7.65763 61.7349C8.80477 61.7316 9.90568 62.188 10.7149 63.0018L11.724 64.0109C12.2449 64.5311 13.0886 64.5311 13.6095 64.0109L14.6186 63.0018C15.8556 61.7648 17.7149 61.395 19.3308 62.0643C20.9467 62.7336 22.0001 64.3104 22.0001 66.0591C21.9968 69.1463 21.2781 72.1906 19.8998 74.9536L19.435 75.8872C18.8692 77.0233 17.7078 77.7394 16.4389 77.7349C15.9194 77.7342 15.407 77.6131 14.9415 77.3813L13.2631 76.5415C12.8875 76.354 12.446 76.354 12.071 76.5415L10.3933 77.3813C9.92782 77.6131 9.41479 77.7342 8.89461 77.7349C7.62508 77.7388 6.46297 77.0207 5.89852 75.8827L5.43368 74.9497C4.05607 72.188 3.33732 69.145 3.33341 66.0591C3.33667 63.6724 5.27092 61.7381 7.65763 61.7349Z" fill="#095FAF"/>
</g>
<defs>
<clipPath id="clip0_3_4414">
<rect width="76" height="80" fill="white" transform="translate(0 0.401367)"/>
</clipPath>
</defs>
</svg>
