<svg width="80" height="80" viewBox="0 0 80 80" fill="none" xmlns="http://www.w3.org/2000/svg">
<g clip-path="url(#clip0_782_2554)">
<mask id="mask0_782_2554" style="mask-type:luminance" maskUnits="userSpaceOnUse" x="0" y="0" width="80" height="80">
<path d="M80 0H0V80H80V0Z" fill="white"/>
</mask>
<g mask="url(#mask0_782_2554)">
<path d="M64.5 35.5H34.5V37.5L35 38.5L37.5 41L39.5 42L40.5 43.5L40 45.5L36.5 47L34.5 50.5L34 61L35.5 72.5L36.5 76L38.5 78C39 78.1667 40.2 78.5 41 78.5C42 78.5 46.5 79 47.5 79H53H56.5L55.5 77C55.1667 76.1667 54.5 74.2 54.5 73C54.5 71.8 54.1667 68.5 54 67V59.5C54 58.7 55 52.8333 55.5 50V48.5C55.5 48 57 48 57.5 47.5C58 47 59.5 47 60 47C60.5 47 62 46.5 62.5 46.5C63 46.5 62 46 61.5 45.5C61 45 61.5 45 61.5 44.5C61.5 44 61.5 43 61 42.5C60.6 42.1 61.8333 41.3333 62.5 41C63 40.8333 64 40.4 64 40C64 39.6 65 39.1667 65.5 39L66.5 37.5V36L64.5 35.5Z" fill="#009ADB"/>
<path d="M7.5625 61.5928C7.5625 64.0975 9.60016 66.1352 12.1047 66.1352C14.6093 66.1352 16.647 64.0975 16.647 61.5928C16.647 59.0881 14.6093 57.0505 12.1047 57.0505C9.60016 57.0505 7.5625 59.0881 7.5625 61.5928ZM14.3034 61.5928C14.3034 62.8052 13.3172 63.7914 12.1048 63.7914C10.8925 63.7914 9.90641 62.8052 9.90641 61.5928C9.90641 60.3805 10.8926 59.3942 12.1048 59.3942C13.317 59.3942 14.3034 60.3806 14.3034 61.5928Z" fill="#095FAF"/>
<path d="M17.873 55.3313C19.8449 55.3313 21.4492 53.727 21.4492 51.7552C21.4492 49.7833 19.8449 48.1791 17.873 48.1791C15.9011 48.1791 14.2969 49.7833 14.2969 51.7552C14.2969 53.727 15.9011 55.3313 17.873 55.3313ZM17.873 50.5227C18.5527 50.5227 19.1055 51.0755 19.1055 51.755C19.1055 52.4345 18.5527 52.9874 17.873 52.9874C17.1935 52.9874 16.6406 52.4345 16.6406 51.755C16.6406 51.0755 17.1936 50.5227 17.873 50.5227Z" fill="#095FAF"/>
<path d="M30.3478 69.9974C30.3478 68.0255 28.7434 66.4213 26.7715 66.4213C24.7997 66.4213 23.1953 68.0255 23.1953 69.9974C23.1953 71.9692 24.7997 73.5735 26.7715 73.5735C28.7434 73.5735 30.3478 71.9692 30.3478 69.9974ZM25.5392 69.9974C25.5392 69.3178 26.092 68.765 26.7717 68.765C27.4514 68.765 28.0042 69.3178 28.0042 69.9974C28.0042 70.6769 27.4514 71.2297 26.7717 71.2297C26.092 71.2297 25.5392 70.6769 25.5392 69.9974Z" fill="#095FAF"/>
<path d="M77.5005 50.2262C77.163 47.7714 75.0424 45.9203 72.5679 45.9203H71.7377L72.5376 43.8403C72.7699 43.2363 72.4685 42.5581 71.8643 42.3259C71.2601 42.0934 70.5821 42.3952 70.3501 42.9991L69.2268 45.9203H64.3501C64.1849 45.8411 64.0177 45.7667 63.8474 45.7031C62.6291 45.2491 62.0115 44.5417 62.0115 43.6012C62.0115 42.7248 63.4932 42.0139 64.1313 41.7484C66.0246 40.9584 67.3816 39.2875 67.7613 37.2778C68.5479 33.1047 68.9051 28.6397 69.0482 26.3481C69.121 25.1581 68.8516 23.9939 68.2693 22.9814C65.2099 17.662 59.668 14.04 57.8146 12.9313V9.18375H57.8757C58.523 9.18375 59.0476 8.65906 59.0476 8.01188V3.79797C59.0476 1.70375 57.3437 0 55.2494 0H45.9685C43.8744 0 42.1705 1.70375 42.1705 3.79797V8.01188C42.1705 8.65906 42.6951 9.18375 43.3424 9.18375H43.4038V12.9308C42.2076 13.6463 39.4748 15.4098 36.8648 17.9995V17.1773C38.1996 16.4552 39.1084 15.0423 39.1084 13.4211C39.1084 11.0678 37.1938 9.15344 34.8405 9.15344H16.3241C13.9709 9.15344 12.0565 11.068 12.0565 13.4211C12.0565 15.0427 12.9657 16.4558 14.301 17.1778V20.7633C12.6969 21.6991 8.33929 24.4806 4.50054 29.092C3.81085 29.9228 3.37132 30.9309 3.22945 32.008C3.03866 33.4573 2.75273 35.8236 2.47429 38.8648C2.41523 39.5094 2.88991 40.0797 3.53445 40.1387C3.5707 40.142 3.60679 40.1438 3.64257 40.1438C4.24148 40.1438 4.75257 39.6869 4.8082 39.0786C5.0832 36.0755 5.36491 33.7422 5.55304 32.3141C5.61429 31.8494 5.7696 31.4073 6.00585 31.0122H32.5627C32.7694 32.9616 33.0582 35.1581 33.4568 37.277C33.8346 39.2867 35.1918 40.9583 37.088 41.7487C37.7246 42.0136 39.2052 42.7242 39.2052 43.6011C39.2052 44.542 38.5882 45.2492 37.3704 45.7033C35.1837 46.52 33.6419 48.5347 33.4426 50.8356C32.9813 56.1433 32.639 66.4137 35.5299 75.5647C35.7734 76.3358 36.153 77.0327 36.6368 77.6342C36.4118 77.648 36.1863 77.6564 35.9599 77.6564H15.2038C9.5382 77.6564 4.77507 73.2384 4.36007 67.5986C3.82413 60.3138 3.84991 52.2808 4.43695 43.7227C4.48116 43.0769 3.99366 42.5177 3.34804 42.4733C2.70288 42.4286 2.14288 42.9164 2.09866 43.5622C1.50413 52.2306 1.47851 60.3755 2.02273 67.7705C2.26804 71.1061 3.75538 74.1966 6.2107 76.473C8.66382 78.7473 11.8577 80 15.2038 80H35.9601C37.0924 80 38.2134 79.8562 39.2991 79.5738C40.0177 79.8495 40.7959 79.9992 41.6038 79.9992L72.5679 80C75.0424 80 77.163 78.1489 77.5005 75.6939C78.6621 67.2444 78.6621 58.6759 77.5005 50.2262ZM75.9187 67.3887C74.9852 67.9598 73.9232 68.2602 72.8162 68.2602C69.5319 68.2602 66.8601 65.5889 66.8601 62.3056C66.8601 59.0214 69.5321 56.3494 72.8162 56.3494C73.893 56.3494 74.9285 56.6336 75.8416 57.1742C76.0577 60.5755 76.0841 63.9856 75.9187 67.3887ZM66.709 26.2033C66.5971 27.9941 66.3513 31.1444 65.8662 34.4075H35.3529C34.8685 31.1473 34.621 27.9956 34.5079 26.2047C34.4632 25.4734 34.6263 24.7634 34.9805 24.1494C35.1235 23.9008 35.2734 23.6562 35.4285 23.4153H65.7893C65.9446 23.6562 66.0946 23.9009 66.2376 24.1495C66.5907 24.7633 66.7535 25.4739 66.709 26.2033ZM16.6448 17.6889H34.521V20.2778H16.6448V17.6889ZM44.5143 3.79797C44.5143 2.99609 45.1666 2.34375 45.9685 2.34375H55.2494C56.0513 2.34375 56.7038 2.99609 56.7038 3.79797V6.84H44.5143V3.79797ZM55.4709 9.18375V12.4367H45.7476V9.18375H55.4709ZM44.8846 14.7805H56.3335C57.3229 15.3584 61.0413 17.6506 64.0168 21.0717H37.201C40.1765 17.65 43.8963 15.3577 44.8846 14.7805ZM16.3241 11.4972H34.8405C35.9015 11.4972 36.7646 12.3603 36.7646 13.4211C36.7646 14.4816 35.9023 15.3442 34.8419 15.345H16.3226C15.2623 15.3442 14.4001 14.4814 14.4001 13.4211C14.4001 12.3603 15.2632 11.4972 16.3241 11.4972ZM8.03866 28.6684C11.4205 25.2014 14.8502 23.145 15.7743 22.6219H33.1627C33.091 22.7406 33.0191 22.8591 32.9499 22.9795C32.366 23.9914 32.0959 25.1561 32.1688 26.3502C32.2084 26.9769 32.2643 27.7672 32.3402 28.6684H8.03866ZM72.5679 77.6562H59.6146L58.7929 77.6555C57.4901 77.6477 56.3758 76.6702 56.1977 75.3748C56.0132 74.0316 55.858 72.6797 55.7365 71.3567C55.6771 70.7123 55.1068 70.237 54.4623 70.297C53.8177 70.3562 53.3433 70.9267 53.4026 71.5713C53.5274 72.9289 53.6866 74.3158 53.8758 75.6939C53.9743 76.4095 54.2251 77.0733 54.5912 77.6553H41.6038C39.8359 77.6553 38.2932 76.5314 37.7651 74.8586C34.9963 66.0942 35.3315 56.1725 35.7776 51.038C35.8993 49.633 36.8465 48.4008 38.1898 47.8989C40.3246 47.103 41.549 45.5364 41.549 43.6009C41.549 42.4445 40.9313 40.8089 37.9891 39.585C36.8249 39.0997 35.9916 38.075 35.7602 36.8438C35.7544 36.813 35.7488 36.7819 35.7432 36.7511H65.4752C65.4696 36.7816 65.464 36.8123 65.4582 36.8428C65.2254 38.0747 64.3919 39.0998 63.2298 39.5847C60.2854 40.8095 59.6674 42.4448 59.6674 43.6011C59.6674 44.4583 59.9088 45.2427 60.3621 45.9203H58.8082C56.3337 45.9203 54.213 47.7714 53.8755 50.2261C53.1191 55.7188 52.8535 61.3153 53.0858 66.86C53.113 67.5067 53.6655 68.0081 54.3057 67.9817C54.9524 67.9547 55.4548 67.4084 55.4276 66.7619C55.2012 61.3564 55.4601 55.9005 56.1974 50.5456C56.3765 49.245 57.4988 48.2641 58.8084 48.2641H72.5679C73.8774 48.2641 74.9998 49.245 75.1788 50.5455C75.3594 51.8591 75.5079 53.1759 75.6309 54.4945C74.7369 54.1723 73.7885 54.0056 72.8162 54.0056C68.2396 54.0056 64.5163 57.7289 64.5163 62.3056C64.5163 66.8814 68.2396 70.6039 72.8162 70.6039C73.8312 70.6039 74.8191 70.4228 75.7469 70.0723C75.6083 71.8434 75.4212 73.6117 75.1788 75.3745C74.9998 76.6753 73.8774 77.6562 72.5679 77.6562Z" fill="#095FAF"/>
</g>
</g>
<defs>
<clipPath id="clip0_782_2554">
<rect width="80" height="80" fill="white"/>
</clipPath>
</defs>
</svg>
