<svg width="80" height="80" viewBox="0 0 80 80" fill="none" xmlns="http://www.w3.org/2000/svg">
<g clip-path="url(#clip0_782_2617)">
<mask id="mask0_782_2617" style="mask-type:luminance" maskUnits="userSpaceOnUse" x="0" y="0" width="80" height="80">
<path d="M80 0H0V80H80V0Z" fill="white"/>
</mask>
<g mask="url(#mask0_782_2617)">
<path d="M25 69.5L18 71L16.5 72L15 74L14 75.5L17 76.5C18.5 77 20.5 77.5 21.5 78C22.3 78.4 30.1667 78.5 34 78.5C50.8 78.1 63.6667 66.3333 68 60.5L74 50.5L76.5 41L77.5 27.5C76.6667 24 75 16.9 75 16.5C75 16.1 74 14.6667 73.5 14L70.5 14.5L69.5 18V19C69.3333 20 69 22.1 69 22.5C69 22.9 67.6667 26.3333 67 28L64.5 35L59.5 43.5L52 53L45 59.5L34.5 65.5L25 69.5Z" fill="#009ADB"/>
<path d="M75.5894 13.6286L72.7376 3.50559C72.3439 2.10808 71.1569 1.10445 69.7135 0.94862L67.5449 0.714478C66.5486 0.606628 65.5494 0.929082 64.8037 1.59837C64.0578 2.26767 63.6297 3.22643 63.629 4.22865L63.624 13.4379C62.4364 17.6728 60.8675 21.7877 58.9476 25.7328C58.1745 23.9509 57.2354 22.2339 56.1327 20.6077C55.0111 18.9561 53.7633 17.4176 52.4241 16.0352C49.8591 13.387 45.9433 12.4827 42.4472 13.7321C40.005 14.6043 37.4704 15.8065 34.9115 17.3035C34.7944 13.3569 33.8766 9.99548 33.0648 7.75612C32.0233 4.88294 30.5928 2.31378 29.331 1.05115C27.5562 -0.723673 24.422 -0.0629774 22.7187 1.63964C21.2839 3.07419 20.5198 5.66133 23.0887 8.23128C24.5012 9.6438 25.6727 12.5748 26.4558 16.6034C24.3179 15.4291 22.2048 14.4633 20.1575 13.7322C16.6634 12.4834 12.747 13.3873 10.181 16.0349C9.38836 16.8525 8.62152 17.7327 7.90221 18.6506C7.50286 19.1602 7.59226 19.8972 8.10181 20.2964C8.61152 20.6956 9.34818 20.6065 9.74753 20.0968C10.4164 19.2433 11.1285 18.4259 11.8644 17.6669C13.7921 15.6777 16.7376 15 19.3688 15.9402C21.7124 16.777 24.1561 17.9404 26.6321 19.3978C29.5128 21.0929 33.0917 21.0929 35.9727 19.3978C38.448 17.9406 40.8917 16.7773 43.2359 15.9402C45.8682 14.9995 48.8135 15.6774 50.7401 17.6667C51.9855 18.9525 53.1473 20.3851 54.1927 21.9246C55.5891 23.9842 56.7053 26.1989 57.5226 28.5122C54.1167 34.82 49.7932 40.6418 44.6789 45.7561C36.9471 53.489 27.589 59.4197 17.3828 63.0945C10.9861 59.1367 6.4006 52.9792 4.4443 45.6954C2.44174 38.2391 3.42803 30.4774 7.22167 23.8398C7.54287 23.2777 7.34765 22.5615 6.78558 22.2403C6.22367 21.9191 5.50748 22.1145 5.18612 22.6764C1.08377 29.8542 0.0162234 38.245 2.1804 46.303C4.12748 53.5528 8.48741 59.7693 14.5678 64.0441C13.8983 64.2548 13.2261 64.4572 12.5502 64.6486C12.5477 64.6493 12.5452 64.6502 12.5427 64.6508L12.539 64.6519L12.5368 64.6529C12.3037 64.7194 12.0946 64.8567 11.941 65.0497L7.82781 70.2196C7.46081 70.6809 7.49332 71.3428 7.90377 71.7658L12.5444 76.5493C12.6625 76.6711 12.8047 76.7633 12.9596 76.8238C12.9633 76.8253 12.9665 76.8278 12.9704 76.8294C18.5199 78.9362 24.3674 80 30.2466 80C33.5317 80 36.8272 79.6677 40.0847 78.9995C49.4076 77.0873 57.9086 72.5037 64.6686 65.7446C69.5284 60.8848 73.2327 55.1935 75.6783 48.8288C75.9105 48.2246 75.6089 47.5464 75.0045 47.3141C74.3996 47.0817 73.7217 47.3836 73.4898 47.9879C71.1626 54.0441 67.6371 59.4605 63.0109 64.0867C56.5765 70.5205 48.4857 74.8829 39.6138 76.7028C31.5513 78.3566 23.2519 77.848 15.4956 75.2418L18.8679 71.7656C19.314 71.3059 19.3083 70.5735 18.8557 70.1207L15.077 66.3408C26.8114 62.6823 37.5852 56.167 46.3375 47.4133C55.4272 38.3237 62.0996 27.0659 65.6726 14.8073L73.6555 15.1347C77.0341 24.1996 77.486 34.2931 74.9181 43.6467C74.7466 44.271 75.1139 44.9161 75.7382 45.0875C76.3623 45.2593 77.0075 44.8918 77.179 44.2674C79.9414 34.2047 79.376 23.3269 75.5894 13.6286ZM29.0709 17.9518C28.2095 12.4093 26.7562 8.58249 24.7472 6.57337C23.5546 5.3803 23.4266 4.24757 24.3769 3.29755C25.339 2.33535 27.0029 2.03821 27.6732 2.7086C29.3951 4.43185 32.5921 10.8406 32.5791 18.203C31.413 18.4232 30.2027 18.3407 29.0709 17.9518ZM13.3857 74.0494L10.304 70.8728L12.9579 67.5373L16.3812 70.9617L13.3857 74.0494ZM66.3695 3.34335C66.6248 3.11452 66.9533 3.00839 67.2933 3.04543L69.4617 3.27958C69.9481 3.3321 70.3482 3.67034 70.4809 4.14144L72.9082 12.7575L65.9692 12.4729L65.9736 4.2299C65.9739 3.88697 66.1144 3.57218 66.3695 3.34335Z" fill="#095FAF"/>
<path d="M68.2836 17.7866C66.5223 30.3703 60.2369 42.6161 50.5845 52.2685C42.5517 60.3011 32.8056 65.9847 22.3995 68.705C21.773 68.8688 21.3981 69.5094 21.5619 70.1357C21.6996 70.6627 22.1749 71.0118 22.6952 71.0118C22.7934 71.0118 22.8931 70.9993 22.9924 70.9733C33.8011 68.1477 43.9155 62.253 52.2426 53.9262C62.2529 43.9159 68.7744 31.1967 70.6056 18.1114C70.6953 17.4702 70.2483 16.8777 69.607 16.788C68.9663 16.6984 68.3731 17.1453 68.2836 17.7866Z" fill="#095FAF"/>
</g>
</g>
<defs>
<clipPath id="clip0_782_2617">
<rect width="80" height="80" fill="white"/>
</clipPath>
</defs>
</svg>
