<svg width="80" height="80" viewBox="0 0 80 80" fill="none" xmlns="http://www.w3.org/2000/svg">
<path d="M35.4781 39.6979C30.1181 39.6979 21.5197 45.0021 17.8906 47.6542L19.1468 49.3292L21.2406 50.5854L23.7531 53.5167L26.2656 56.0292L28.3593 60.2167L31.7093 62.7292C34.0822 63.0083 38.9118 63.5667 39.2468 63.5667C39.5818 63.5667 44.6906 63.0083 47.2031 62.7292L51.8093 61.4729C52.228 60.6354 53.233 58.8767 53.9031 58.5417C54.5731 58.2067 54.7405 56.7271 54.7405 56.0292L57.6718 53.5167C58.2301 52.8187 59.0118 51.4229 57.6718 51.4229C56.3318 51.4229 51.251 43.6062 48.8781 39.6979H45.1093H35.4781Z" fill="#009ADB"/>
<path d="M60.1797 25.4604C60.4589 24.3437 61.0172 21.9429 61.0172 21.2729L62.6922 23.3667L65.6235 24.2042H69.811L71.9047 27.1354V30.4854V31.7417H69.811H66.8797H62.6922H58.9234L55.9922 30.4854L57.6672 29.2292L60.1797 27.9729V25.4604Z" fill="#009ADB"/>
<path d="M61.7167 19.8771H57.9201C56.4027 19.876 54.9114 20.2751 53.5974 21.0341C53.4109 21.0848 53.2413 21.1841 53.105 21.3209L53.0412 21.3847C52.1285 22.0112 51.3444 22.8073 50.7321 23.7298C50.4137 24.2075 50.5091 24.8487 50.9529 25.2123C51.3968 25.5766 52.0445 25.545 52.4507 25.1387L54.1143 23.4752L59.4746 26.1551V27.1011L55.9098 29.4805C54.8242 30.2008 53.3809 30.0585 52.4573 29.1387C52.177 28.8486 51.7615 28.7319 51.3711 28.8344C50.9807 28.9364 50.676 29.2412 50.574 29.6316C50.4715 30.022 50.5882 30.4375 50.8782 30.7177C52.514 32.3622 54.7397 33.2842 57.0592 33.2771H62.8333V35.5104H60.6C57.5068 35.5203 54.7097 37.3534 53.4665 40.1859C52.4851 39.7983 51.4867 39.4635 50.4753 39.1674C51.8101 38.0448 52.0598 36.0857 51.05 34.6642C50.0402 33.2422 48.1084 32.8327 46.6084 33.7231C45.109 34.6135 44.5436 36.5061 45.3085 38.0731C42.1123 37.6238 38.8681 37.6342 35.6751 38.1047C35.9074 37.6467 36.0301 37.1407 36.0333 36.6271C36.0431 35.0622 34.9679 33.6991 33.4434 33.3436C31.9189 32.9887 30.3524 33.7362 29.6692 35.1446C28.986 36.553 29.3693 38.2459 30.5918 39.2236C29.5722 39.5305 28.5705 39.8931 27.5765 40.2944C26.3606 37.4046 23.5352 35.5213 20.4 35.5104H18.1667V33.2771H23.9408C26.2609 33.2842 28.4871 32.3616 30.1229 30.7166C30.546 30.2782 30.54 29.582 30.1092 29.1512C29.6785 28.7205 28.9822 28.7145 28.5438 29.1376C27.6202 30.0574 26.1764 30.2008 25.0902 29.4805L21.5167 27.0962V26.1507L26.8764 23.4703L28.5405 25.1344C28.9468 25.54 29.594 25.5722 30.0383 25.208C30.4822 24.8443 30.5776 24.2026 30.2592 23.7249C29.6469 22.8029 28.8628 22.0068 27.95 21.3803L27.8862 21.3166C27.7499 21.1797 27.5798 21.0805 27.3939 21.0298C26.0815 20.274 24.594 19.8766 23.0799 19.8771H19.2833C12.5026 19.8853 7.00818 25.3797 7 32.1604V36.6271C7.00491 40.9422 10.5016 44.4389 14.8167 44.4438H20.038L16.4279 46.8658C16.1236 47.0702 15.9393 47.4105 15.9339 47.7769C15.9284 48.1433 16.1029 48.4884 16.4012 48.7016L16.6929 48.9104H13.0457L8.90618 44.7709L7.32715 46.35L11.7938 50.8166C12.0032 51.026 12.2873 51.1438 12.5833 51.1438H19.8182L21.1426 52.0898C21.6879 52.4845 22.207 52.9142 22.696 53.3771H19.2833C19.1634 53.3771 19.0445 53.3962 18.9306 53.4338L12.8849 55.4441L8.90618 51.4709L7.32715 53.05L11.7938 57.5166C12.0032 57.726 12.2873 57.8438 12.5833 57.8438C12.7033 57.8438 12.8222 57.8242 12.9361 57.7871L19.4644 55.6104H24.6835C25.0635 56.1262 25.4119 56.665 25.7265 57.2227L26.0706 57.8438H22.6333C22.5134 57.8438 22.3945 57.8629 22.2806 57.9005L15.5806 60.1338C15.279 60.2358 15.0353 60.461 14.9104 60.7538L11.5605 68.5704L13.6128 69.4505L16.7654 62.0951L22.8144 60.0771H27.311L27.5602 60.5237C27.9293 61.1829 28.3922 61.7848 28.9348 62.3104H23.75C20.6677 62.3143 18.1705 64.8115 18.1667 67.8938V71.2438C18.1705 74.9427 21.1677 77.94 24.8667 77.9438C27.3334 77.9438 29.3333 75.9438 29.3333 73.4771C29.3333 71.0104 27.3334 69.0104 24.8667 69.0104H28.2167C30.8846 69.0066 33.1773 67.1157 33.6882 64.4969C33.9205 64.5171 34.1528 64.5438 34.3883 64.5438H47.0233C47.1209 64.5438 47.2147 64.5247 47.3107 64.5214C47.8347 67.1288 50.1236 69.0061 52.7833 69.0104H56.1333C53.6666 69.0104 51.6667 71.0104 51.6667 73.4771C51.6667 75.9438 53.6666 77.9438 56.1333 77.9438C59.8323 77.94 62.8295 74.9427 62.8333 71.2438V67.8938C62.8295 64.8115 60.3323 62.3143 57.25 62.3104H52.4731C53.1307 61.666 53.6683 60.9097 54.0608 60.0771H58.1856L64.2379 62.0951L67.3905 69.4505L69.4428 68.5704L66.0928 60.7538C65.968 60.461 65.7242 60.2358 65.4227 60.1338L58.7227 57.9005C58.6082 57.8623 58.4877 57.8432 58.3667 57.8438H55.0712C55.4676 57.0619 55.9294 56.3144 56.4518 55.6104H61.5356L68.0639 57.7871C68.1778 57.8242 68.2967 57.8438 68.4167 57.8438C68.7127 57.8438 68.9968 57.726 69.2062 57.5166L73.6729 53.05L72.0938 51.4709L68.1151 55.4496L62.0694 53.4398C61.956 53.4 61.8366 53.3787 61.7167 53.3771H58.4915C58.8492 53.0532 59.2167 52.7397 59.6082 52.448L61.3437 51.1438H68.4167C68.7127 51.1438 68.9968 51.026 69.2062 50.8166L73.6729 46.35L72.0938 44.7709L67.9543 48.9104H64.3219L64.6201 48.6869C64.9042 48.4742 65.0705 48.1389 65.0672 47.7834C65.0639 47.4285 64.8922 47.0959 64.6043 46.8881L61.2221 44.4438H66.1833C70.4984 44.4389 73.9951 40.9422 74 36.6271V32.1604C73.9918 25.3797 68.4974 19.8853 61.7167 19.8771ZM21.5167 22.1104H23.0799C23.5079 22.1104 23.9348 22.153 24.3541 22.2375L21.5167 23.6535V22.1104ZM20.4 67.8938C20.4016 66.4745 21.2958 65.2095 22.6333 64.7346V69.0104H20.4V67.8938ZM27.1 73.4771C27.1 74.7105 26.1 75.7105 24.8667 75.7105C22.4 75.7105 20.4 73.7105 20.4 71.2438H24.8667C26.1 71.2438 27.1 72.2438 27.1 73.4771ZM48.3167 35.5104C48.9333 35.5104 49.4333 36.0104 49.4333 36.6271C49.4333 37.2438 48.9333 37.7438 48.3167 37.7438C47.7 37.7438 47.2 37.2438 47.2 36.6271C47.2 36.0104 47.7 35.5104 48.3167 35.5104ZM32.6833 35.5104C33.3 35.5104 33.8 36.0104 33.8 36.6271C33.8 37.2438 33.3 37.7438 32.6833 37.7438C32.0667 37.7438 31.5667 37.2438 31.5667 36.6271C31.5667 36.0104 32.0667 35.5104 32.6833 35.5104ZM15.9333 36.6271V42.2104H14.8167C11.7344 42.2066 9.23715 39.7094 9.23333 36.6271V33.2771H15.9333V36.6271ZM9.29495 31.0438C9.86964 25.9599 14.1673 22.1164 19.2833 22.1104V27.6938C19.2833 28.0673 19.4698 28.4157 19.7801 28.6229L23.4152 31.0438H9.29495ZM18.1667 42.2104V37.7438H20.4C22.6513 37.7498 24.6791 39.1069 25.5422 41.1865C24.8765 41.506 24.2211 41.8473 23.5761 42.2104H18.1667ZM28.2167 66.7771H24.8667V64.5438H31.3758C30.9009 65.8813 29.6359 66.7755 28.2167 66.7771ZM58.3667 67.8938V64.7346C59.7042 65.2095 60.5984 66.4745 60.6 67.8938V69.0104H58.3667V67.8938ZM60.6 71.2438C60.6 73.7105 58.6 75.7105 56.1333 75.7105C54.9 75.7105 53.9 74.7105 53.9 73.4771C53.9 72.2438 54.9 71.2438 56.1333 71.2438H60.6ZM56.1333 64.5438V66.7771H52.7833C51.3641 66.7755 50.0991 65.8813 49.6242 64.5438H56.1333ZM62.0662 47.8107L58.2696 50.6612C55.539 52.7075 53.4518 55.4927 52.255 58.6878C51.4317 60.8639 49.3499 62.305 47.0233 62.3104H34.3916C32.3644 62.3099 30.4963 61.2107 29.5122 59.4386L27.6785 56.1377C26.3868 53.8199 24.5979 51.8172 22.4403 50.273L19.0107 47.8227L22.4414 45.5212C33.8044 37.8964 48.7142 38.1571 59.8039 46.1744L62.0662 47.8107ZM62.8333 42.2104H57.6966C56.9774 41.8075 56.2478 41.4307 55.5068 41.0791C56.3956 39.0584 58.3923 37.7509 60.6 37.7438H62.8333V42.2104ZM56.6513 22.2375C57.0712 22.153 57.4975 22.1104 57.9256 22.1104H59.4833V23.6535L56.6513 22.2375ZM71.7667 36.6271C71.7628 39.7094 69.2656 42.2066 66.1833 42.2104H65.0667V33.2771H71.7667V36.6271ZM63.95 31.0438H57.5848L61.2161 28.6229C61.528 28.4162 61.7161 28.0678 61.7167 27.6938V22.1104C66.8327 22.1164 71.1304 25.9599 71.7051 31.0438H63.95Z" fill="#095FAF"/>
<path d="M34.5868 47.0043L33.0078 48.5833L35.5683 51.1438L33.0078 53.7043L34.5868 55.2833L37.9368 51.9333C38.3725 51.4971 38.3725 50.7905 37.9368 50.3543L34.5868 47.0043Z" fill="#095FAF"/>
<path d="M46.4111 47.0043L43.0611 50.3543C42.6255 50.7905 42.6255 51.4971 43.0611 51.9333L46.4111 55.2833L47.9902 53.7043L45.4297 51.1438L47.9902 48.5833L46.4111 47.0043Z" fill="#095FAF"/>
<path d="M33.2151 10.5834L29.2656 5.89086L31.6505 6.1471L33.5866 6.26234L34.9071 5.19801L36.8175 3.82592L38.4458 3.35138L39.0614 4.53094L39.0871 6.01827L39.7027 7.19783L43.1519 8.77468L45.7035 10.0695L47.4986 10.6335L48.845 11.0565L49.1527 11.6463L48.7297 12.9926L48.3067 14.3389L48.0247 15.2365L46.6784 14.8135L44.9985 12.3133L33.2151 10.5834Z" fill="#009ADB"/>
<path d="M53.8459 8.17836C52.6494 8.02755 51.4421 8.36156 50.4932 9.10615L48.9034 10.3469C48.352 10.2773 47.8066 10.1658 47.2722 10.0136L48.2432 8.24965C48.3316 8.08915 48.3347 7.89496 48.2509 7.73163C48.1671 7.56855 48.0077 7.45772 47.8257 7.43581C46.3612 7.25518 44.5487 8.11955 43.8624 8.48605C42.6163 7.79329 41.299 7.2377 39.9335 6.82864L39.4063 3.4665C39.3618 3.18076 39.1041 2.97805 38.8157 3.0019C36.3483 3.18591 34.147 4.93911 33.4059 5.59134C26.6377 5.02486 21.2449 6.71323 20.886 9.62316C20.5043 12.7178 25.9749 15.8532 33.3404 16.7617C34.1232 16.8582 34.8979 16.9183 35.6634 16.9571C37.0622 18.303 38.8697 19.1445 40.8001 19.3486C40.9902 19.3732 41.1792 19.2972 41.2996 19.1482C41.42 18.9992 41.4543 18.798 41.3903 18.6176L40.7306 16.7581C41.131 16.7006 41.5179 16.6327 41.8908 16.5545C42.9176 17.7718 44.2092 18.7379 45.667 19.3789C45.8382 19.4448 46.0313 19.4212 46.1816 19.3157C46.3319 19.2103 46.42 19.0372 46.4163 18.8536L46.3582 15.7216C46.9239 15.7078 47.4902 15.7334 48.0528 15.7982L48.2284 15.8199L49.4691 17.4097C50.2086 18.3626 51.2985 18.9799 52.4958 19.1243C52.7981 19.1616 53.0734 18.9468 53.1106 18.6445L54.3257 8.79315C54.363 8.49095 54.1482 8.21565 53.8459 8.17836ZM46.8057 8.56966L46.2071 9.65695C45.8183 9.50565 45.4305 9.33245 45.0438 9.13745C45.6066 8.87915 46.198 8.68866 46.8057 8.56966ZM38.3973 4.16599L38.7625 6.49755C37.5126 6.17437 36.2439 5.9289 34.9637 5.76286C35.9786 4.98732 37.1502 4.44246 38.3973 4.16599ZM37.4714 17.0007C38.207 16.993 38.9162 16.951 39.6034 16.8874L40.0309 18.0931C39.1205 17.8816 38.2542 17.5118 37.4714 17.0007ZM43.1072 16.2474C43.1847 16.2241 43.2692 16.2055 43.3449 16.1815C43.9659 15.9895 44.604 15.8579 45.2504 15.7887L45.2924 17.9836C44.4852 17.5115 43.7494 16.927 43.1072 16.2474ZM48.0427 14.6857C46.3526 14.4756 44.6372 14.6271 43.0101 15.1301C40.5928 15.9017 37.1937 16.1002 33.6625 15.6858C34.145 15.4868 34.5876 15.2025 34.969 14.8467L35.7656 14.0999C35.9229 13.9532 35.9805 13.7286 35.9131 13.5244C35.8461 13.3203 35.6663 13.1739 35.4529 13.1492L31.0745 12.6091L30.9395 13.7037L34.1471 14.0994C32.9944 15.1327 31.2655 15.1875 30.0497 14.2288L29.5292 14.8942C29.0187 14.7574 28.5181 14.608 28.033 14.4475L29.0553 13.3341C30.0948 12.2023 30.3639 10.5619 29.7406 9.15745L29.3162 8.20115L28.3088 8.64806L28.7326 9.60475C29.1778 10.6079 28.9858 11.7799 28.2434 12.5882L26.9053 14.0445C23.9277 12.8926 21.787 11.3274 21.9806 9.75815C21.9974 9.64795 22.0263 9.53945 22.067 9.43536L23.7142 11.0184L24.4791 10.2237L22.7237 8.53485C24.4115 7.04494 28.8202 6.11013 34.5668 6.81892C38.0986 7.25453 41.3821 8.26395 43.5759 9.58745C45.0646 10.5064 46.7207 11.1217 48.4482 11.3977L48.0427 14.6857ZM52.9611 10.8474L51.3192 10.6449L51.1842 11.7395L52.8261 11.942L52.6911 13.0366L51.0492 12.8341L50.9142 13.9287L52.5561 14.1312L52.4211 15.2258L50.7792 15.0232L50.6442 16.1178L52.2861 16.3204L52.0889 17.9189C51.3944 17.7183 50.7818 17.3025 50.3384 16.7313L49.0977 15.1414L49.5819 11.2163L51.1717 9.97555C51.7406 9.52936 52.4358 9.27496 53.1583 9.24876L52.9611 10.8474Z" fill="#095FAF" stroke="#095FAF"/>
<path d="M26.557 8.70186C26.4824 9.30626 25.9319 9.73596 25.3274 9.66136C24.7229 9.58686 24.2933 9.03626 24.3678 8.43176C24.4424 7.82731 24.9929 7.39765 25.5974 7.47221C26.2019 7.54677 26.6316 8.09736 26.557 8.70186Z" fill="#095FAF"/>
<path d="M31.4084 9.85666L46.1854 11.6793L46.0504 12.7739L31.2734 10.9513L31.4084 9.85666Z" fill="#095FAF" stroke="#095FAF"/>
</svg>
